<?xml version="1.0" encoding="UTF-8"?>
<svg version="1.1" xmlns="http://www.w3.org/2000/svg" width="1618" height="400">
<path d="M0 0 C0.72178436 0.00182281 1.44356873 0.00364563 2.18722534 0.00552368 C12.94379901 0.05118494 23.17979903 0.52111009 33.625 3.3125 C34.27597656 3.47878906 34.92695313 3.64507812 35.59765625 3.81640625 C45.05975128 6.27764484 53.56656154 9.98389898 62.19921875 14.54296875 C63.32972656 15.12691406 64.46023437 15.71085938 65.625 16.3125 C66.47707031 16.79203125 67.32914062 17.2715625 68.20703125 17.765625 C70.75465787 18.60084862 70.75465787 18.60084862 73.4375 17.00390625 C74.489375 16.30136719 75.54125 15.59882813 76.625 14.875 C105.38693185 -2.99001437 144.36785506 -3.27159356 176.625 3.3125 C182.235 4.6325 187.845 5.9525 193.625 7.3125 C193.625 72.3225 193.625 137.3325 193.625 204.3125 C188.75806603 203.70413325 184.63189913 203.18408499 180.0078125 201.97265625 C178.9979126 201.71492432 177.9880127 201.45719238 176.94750977 201.19165039 C175.89233154 200.92215576 174.83715332 200.65266113 173.75 200.375 C143.39322385 192.91696902 117.44759696 194.0356996 90.078125 209.77734375 C83.05467248 214.19904288 76.87594569 219.88277592 70.625 225.3125 C66.69945257 223.67450179 63.82539281 220.97480079 60.6875 218.1875 C41.07692797 201.3013107 18.09713909 194.08939879 -7.66015625 195.48828125 C-17.89927084 196.30182246 -27.76365345 198.65452361 -37.69750977 201.19165039 C-38.70740967 201.44938232 -39.71730957 201.70711426 -40.7578125 201.97265625 C-41.64871582 202.20605713 -42.53961914 202.43945801 -43.45751953 202.67993164 C-47.05358647 203.45963118 -50.72379105 203.85609888 -54.375 204.3125 C-54.375 139.3025 -54.375 74.2925 -54.375 7.3125 C-35.61986153 3.23529598 -18.88744684 -0.09967062 0 0 Z M-22 15.6875 C-22.91394531 15.81382812 -23.82789063 15.94015625 -24.76953125 16.0703125 C-29.87440533 16.80694657 -34.34038343 17.87403812 -39.375 19.3125 C-39.375 74.0925 -39.375 128.8725 -39.375 185.3125 C-32.58473354 184.59635891 -32.58473354 184.59635891 -25.89453125 183.55859375 C7.07588673 177.80667981 35.70184396 182.69706264 63.625 201.3125 C63.625 145.5425 63.625 89.7725 63.625 32.3125 C52.51327538 25.76658817 52.51327538 25.76658817 40.9375 20.8125 C40.26267578 20.56242187 39.58785156 20.31234375 38.89257812 20.0546875 C36.00147963 19.00964296 33.72241439 18.3125 30.625 18.3125 C30.625 36.1325 30.625 53.9525 30.625 72.3125 C27.655 70.3325 24.685 68.3525 21.625 66.3125 C16.96810902 64.82563412 16.96810902 64.82563412 14.45703125 66.4921875 C13.79058594 67.05164063 13.12414062 67.61109375 12.4375 68.1875 C8.65467359 71.2976632 8.65467359 71.2976632 6.625 72.3125 C6.625 53.1725 6.625 34.0325 6.625 14.3125 C-7.83959274 14.25821013 -7.83959274 14.25821013 -22 15.6875 Z M76.625 32.3125 C76.32480868 35.32474365 76.32480868 35.32474365 76.38449097 38.93093872 C76.38278212 39.61868437 76.38107327 40.30643001 76.37931263 41.01501644 C76.37600579 43.33059062 76.38704082 45.64587808 76.39794922 47.96142578 C76.39851308 49.61687208 76.39819727 51.27231888 76.39706421 52.92776489 C76.3964887 57.43167855 76.408275 61.9354864 76.42221212 66.4393754 C76.43468652 71.14259211 76.43588738 75.84581105 76.43826294 80.54904175 C76.44448741 89.459656 76.46091127 98.37022136 76.48096192 107.28081405 C76.50329089 117.42334501 76.51430678 127.56587826 76.52435279 137.70842767 C76.54527668 158.5764791 76.5804714 179.44448647 76.625 200.3125 C77.55586426 199.77270508 78.48672852 199.23291016 79.44580078 198.67675781 C80.69555762 197.95624073 81.94539942 197.235871 83.1953125 196.515625 C83.80544189 196.16129395 84.41557129 195.80696289 85.04418945 195.44189453 C110.93657395 180.55334561 139.2945614 178.55558499 168.24584961 183.92358398 C171.69068306 184.48670555 175.16139819 184.87954977 178.625 185.3125 C178.625 130.5325 178.625 75.7525 178.625 19.3125 C149.06113709 11.92153427 100.77372192 8.16377808 76.625 32.3125 Z " fill="#00AEED" transform="translate(102.375,118.6875)"/>
<path d="M0 0 C0 53.13 0 106.26 0 161 C9.57 159.02 19.14 157.04 29 155 C71.62475925 149.64278982 108.60066391 158.72258298 144 183 C144.95664551 183.76497803 144.95664551 183.76497803 145.93261719 184.54541016 C147.91293879 186.1834576 147.91293879 186.1834576 151 188 C155.44195633 187.28377758 159.03312561 184.04870188 162.6875 181.5 C200.65313525 155.70380816 240.32666355 148.77144295 285.2890625 156.8671875 C291.55430327 158.10995072 297.77626341 159.56375309 304 161 C304.33 107.87 304.66 54.74 305 0 C306.65 0.99 308.3 1.98 310 3 C310.60309529 3.35590802 311.20619059 3.71181604 311.8275615 4.07850915 C317.69119273 7.66030362 323.00833183 11.06301805 325.27184677 17.76677513 C325.89303969 22.21839029 325.73581103 26.6497852 325.58935547 31.12963867 C325.58539957 32.83566968 325.58763655 34.54172446 325.59555054 36.2477417 C325.59954615 40.85030624 325.51762376 45.44769817 325.41951513 50.04906631 C325.33161831 54.86807674 325.32374397 59.68722389 325.30715942 64.50691223 C325.26375335 73.6202107 325.14902429 82.73114024 325.00826657 91.84339839 C324.85143751 102.22280566 324.77472266 112.60232991 324.70453048 122.98262823 C324.55844073 144.32307123 324.31241151 165.66138602 324 187 C322.23975061 186.68490143 320.47974716 186.36842869 318.71984863 186.05137634 C317.24965649 185.78724394 317.24965649 185.78724394 315.74976349 185.51777554 C312.61788289 184.92804803 309.54897301 184.19562449 306.46875 183.37890625 C305.33824219 183.0845166 304.20773437 182.79012695 303.04296875 182.48681641 C301.28919922 182.02927979 301.28919922 182.02927979 299.5 181.5625 C261.57694102 171.92785897 221.18975292 169.5015776 186.24609375 190.16796875 C179.08114059 194.5767293 172.4231273 199.57173302 166 205 C164.83205054 205.98179379 163.66408044 206.963563 162.49609375 207.9453125 C159.32170366 210.61969459 156.15849157 213.30686612 153 216 C148.89838187 214.31933696 145.88937964 211.40670771 142.625 208.5 C114.52041212 184.04071538 82.18342344 171.98883603 44.69140625 174.39672852 C26.35908547 175.85031738 8.58662782 180.02869404 -9.04711914 185.12011719 C-9.90297607 185.36536133 -10.75883301 185.61060547 -11.640625 185.86328125 C-12.76259277 186.19259644 -12.76259277 186.19259644 -13.90722656 186.52856445 C-16 187 -16 187 -20 187 C-20.32745188 164.63408439 -20.57411784 142.26856548 -20.72537041 119.90073681 C-20.79747624 109.51414416 -20.89572468 99.12904316 -21.05615234 88.7434082 C-21.19596251 79.68815336 -21.28607619 70.63397888 -21.31723893 61.57767469 C-21.33544948 56.78439712 -21.37804153 51.99420931 -21.48022079 47.20192528 C-21.57576303 42.68402005 -21.60446974 38.17045376 -21.58350754 33.65163422 C-21.58733749 31.9999176 -21.61490734 30.3480456 -21.66887665 28.6972065 C-22.04540375 16.57821016 -22.04540375 16.57821016 -18.61417627 12.2531836 C-14.80556675 8.55186942 -10.50371461 5.77998785 -6 3 C-4.85065129 2.11466473 -4.85065129 2.11466473 -3.67808342 1.2114439 C-2 0 -2 0 0 0 Z " fill="#00AEEE" transform="translate(20,184)"/>
<path d="M0 0 C4.22107104 3.8486236 5.29937147 8.17057192 5.5625 13.6875 C4.85336037 33.24793469 -11.28398078 50.12411187 -24.58984375 62.96484375 C-29.56271979 67.58658997 -35.09054346 72.66487126 -42.07421875 73.16796875 C-44.875 72.9375 -44.875 72.9375 -46.75 71.9375 C-48.64609347 68.56666717 -48.71721953 65.60583395 -47.875 61.9375 C-43.85508195 53.92419802 -36.71077516 46.66300594 -29.875 40.9375 C-28.885 40.9375 -27.895 40.9375 -26.875 40.9375 C-26.545 41.5975 -26.215 42.2575 -25.875 42.9375 C-16.59224335 33.61669926 -6.875 22.78501909 -6.875 8.9375 C-18.78384031 9.56428107 -27.86978688 20.10826564 -35.875 27.9375 C-36.44508789 28.48494873 -37.01517578 29.03239746 -37.60253906 29.59643555 C-52.57384434 44.18953143 -68.68010137 65.71615143 -69.9765625 87.29296875 C-69.76741112 92.73894885 -68.27580741 97.18649074 -64.875 101.4375 C-60.64220404 104.61209697 -55.94004866 104.45373096 -50.875 103.9375 C-37.36908378 100.98013759 -26.20889542 92.77183962 -15.875 83.9375 C-14.93398438 83.17695313 -13.99296875 82.41640625 -13.0234375 81.6328125 C-6.99420904 76.54615884 -3.60459001 72.05352741 -0.37890625 64.89453125 C4.87862974 54.55698646 15.17279251 46.56563066 26.125 42.9375 C28.9140625 42.6015625 28.9140625 42.6015625 31.75 42.5625 C32.69101563 42.53414063 33.63203125 42.50578125 34.6015625 42.4765625 C37.125 42.9375 37.125 42.9375 38.9453125 44.703125 C40.63759731 47.90837968 40.56069338 49.91832867 39.98828125 53.4453125 C36.35514079 63.93374514 25.2424761 69.50940134 15.89257812 74.17236328 C13.67739693 75.13125525 11.51609877 75.6362957 9.125 75.9375 C9.40651087 77.25221568 9.70053339 78.56425767 10 79.875 C10.16242188 80.60589844 10.32484375 81.33679688 10.4921875 82.08984375 C10.95461523 84.14450294 10.95461523 84.14450294 13.125 84.9375 C19.64116799 85.49923862 23.62685929 84.41654949 29.125 80.9375 C29.88167969 80.463125 30.63835937 79.98875 31.41796875 79.5 C36.9359565 75.65497001 39.69119948 71.70169108 42.66015625 65.72265625 C45.76447345 59.82031448 50.26606443 53.30638795 56.125 49.9375 C62.11050725 49.43025362 62.11050725 49.43025362 65.125 50.9375 C65.52371336 54.28788238 65.38979566 55.58386222 63.33203125 58.33203125 C62.14673828 59.52892578 62.14673828 59.52892578 60.9375 60.75 C56.28491103 65.65903088 52.28292945 70.46371165 50.125 76.9375 C51.27148456 75.79101544 52.41764281 74.64420337 53.5625 73.49609375 C54.66154851 72.39979286 55.76624388 71.30913825 56.875 70.22265625 C57.473125 69.63355469 58.07125 69.04445313 58.6875 68.4375 C59.24566406 67.8909375 59.80382813 67.344375 60.37890625 66.78125 C62.2192584 64.89972 62.2192584 64.89972 64.0078125 62.5 C67.75946104 57.95925934 72.50743181 54.55809324 77.125 50.9375 C77.805625 50.3909375 78.48625 49.844375 79.1875 49.28125 C82.77026664 46.53019704 85.60693339 45.26809024 90.125 44.9375 C90.66182668 46.15976641 91.17875532 47.39078085 91.6875 48.625 C91.97753906 49.30949219 92.26757812 49.99398437 92.56640625 50.69921875 C93.29962962 53.63723968 93.12480539 55.05620431 92.125 57.9375 C90.49806934 60.40997474 88.64336495 62.66546205 86.75 64.9375 C79.98263959 72.45898979 79.98263959 72.45898979 78.125 81.9375 C92.09941221 77.92745128 102.20072334 64.40241091 110.125 52.9375 C106.165 52.9375 102.205 52.9375 98.125 52.9375 C98.45990174 46.2394652 102.20247027 41.73690763 106.88671875 37.25 C109.94359834 35.45748422 112.60951244 35.40430251 116.125 35.125 C121.61790556 34.62085473 121.61790556 34.62085473 125.625 31.125 C126.12 30.073125 126.615 29.02125 127.125 27.9375 C131.71533079 23.13851781 131.71533079 23.13851781 135.2890625 22.62890625 C137.5 22.625 137.5 22.625 141.125 22.9375 C140.72291618 28.56667348 138.83569698 30.94136479 135.125 34.9375 C138.095 35.9275 138.095 35.9275 141.125 36.9375 C138.89272991 43.01238428 135.89485375 48.49581219 131.125 52.9375 C127.28682161 53.85543491 123.98725039 53.64037277 120.125 52.9375 C119.86847656 53.60523438 119.61195313 54.27296875 119.34765625 54.9609375 C117.58861681 59.24332745 115.58580755 63.4033419 113.60351562 67.5859375 C111.01455781 73.08266321 110.01002341 76.8437407 110.125 82.9375 C112.58023388 83.82980848 113.75159796 84.07623163 116.23828125 83.15234375 C124.59042394 78.30127686 129.62112098 74.45496122 133.69140625 65.59375 C138.95815402 55.83519828 148.55092284 47.84132212 158.75390625 43.6328125 C162.91640647 42.41217817 166.85181725 42.20232878 171.125 42.9375 C173.8125 44.4375 173.8125 44.4375 175.125 46.9375 C175.125 53.71461824 173.20783535 57.51303118 168.64453125 62.58203125 C163.2853154 67.82294211 151.89999583 75.9375 144.125 75.9375 C144.43318356 77.25102023 144.74667665 78.56329572 145.0625 79.875 C145.23652344 80.60589844 145.41054687 81.33679688 145.58984375 82.08984375 C145.96387569 83.93719898 145.96387569 83.93719898 147.125 84.9375 C155.69929436 86.27723349 161.07241523 82.86338362 167.80859375 78 C172.20666592 74.6296341 175.4692294 71.87209312 178.125 66.9375 C177.63 66.56625 177.135 66.195 176.625 65.8125 C175.125 63.9375 175.125 63.9375 174.5625 61.375 C175.83330767 53.6089531 181.17564691 46.87419724 187.125 41.9375 C190 41.0625 190 41.0625 192.125 40.9375 C193.25 44.6875 193.25 44.6875 192.125 46.9375 C193.37796875 46.75832031 194.6309375 46.57914062 195.921875 46.39453125 C197.57279904 46.17878549 199.22384764 45.96399137 200.875 45.75 C201.7 45.62947266 202.525 45.50894531 203.375 45.38476562 C209.46363902 44.62368575 209.46363902 44.62368575 212.65234375 46.13671875 C214.9237945 48.91427523 214.97926385 50.82258685 214.84765625 54.3359375 C213.59007627 58.86322542 210.45940803 61.90262511 207.39453125 65.36328125 C203.81786155 69.42012347 201.2780075 72.83364682 200.875 78.375 C200.9575 79.220625 201.04 80.06625 201.125 80.9375 C206.55015477 80.65928694 209.80017334 78.38331674 214.07421875 75.3125 C216.125 73.9375 216.125 73.9375 219.125 72.9375 C219.62525365 75.99044987 219.70994278 78.10216555 217.89306641 80.69677734 C216.13952737 82.58691547 214.31975695 84.36308715 212.4375 86.125 C211.81166016 86.74052734 211.18582031 87.35605469 210.54101562 87.99023438 C205.59496338 92.77055502 201.25534488 96.4823716 194.125 96.9375 C191.49331676 96.13337456 190.4790206 95.51855555 189.046875 93.16796875 C186.8285593 87.80077271 187.3187998 82.12960959 189.29296875 76.76171875 C191.96899566 71.23768377 194.90956122 66.40090577 199.125 61.9375 C194.25749937 62.05381895 189.72478053 62.27895202 186.2109375 65.921875 C184.99436188 67.75507114 183.79565271 69.60017882 182.609375 71.453125 C179.52731654 76.03573031 175.63257808 79.84757407 171.75 83.75 C171.05438965 84.46679932 170.3587793 85.18359863 169.64208984 85.92211914 C162.8759988 92.67014423 155.52259861 98.46360381 145.75 99.1875 C140.62297783 98.83391226 137.59386207 97.32475862 133.875 93.8125 C131.56308751 90.01435806 130.84517917 86.28700315 130.125 81.9375 C129.155625 82.7625 128.18625 83.5875 127.1875 84.4375 C126.548125 84.98148437 125.90875 85.52546875 125.25 86.0859375 C123.79031729 87.35779339 122.35370051 88.65646131 120.9375 89.9765625 C115.43645772 95.07648711 110.45792185 99.17286673 102.9375 100.5 C98.85822419 99.68414484 97.48884607 98.34421934 95.125 94.9375 C93.82599025 88.60176374 95.79941773 82.79298394 98.125 76.9375 C93.96947786 80.47411459 89.96331796 84.05704321 86.1875 88 C81.46929749 92.75528073 76.51569739 97.37238377 69.75 98.5 C66.74801108 97.85671666 65.97453348 97.32977408 64.125 94.9375 C62.1817271 86.15511164 65.86301041 79.36837823 70.125 71.9375 C70.80137458 70.60906496 71.47231071 69.27773092 72.125 67.9375 C64.27372014 73.82002992 58.53339822 81.57994205 52.53198242 89.23925781 C48.74170745 93.81415851 48.74170745 93.81415851 45.625 94.4375 C43.125 93.9375 43.125 93.9375 41.4375 91.875 C39.98303627 88.61977166 39.00491116 85.38945915 38.125 81.9375 C37.51914063 82.58976562 36.91328125 83.24203125 36.2890625 83.9140625 C29.00299022 91.51399636 21.6258737 98.38187973 10.75 99.1875 C6.66866904 98.9060289 4.52153012 98.20185342 1.125 95.9375 C-2.60291019 91.48471838 -3.58223706 87.44308251 -4.875 81.9375 C-5.40754395 82.49099121 -5.94008789 83.04448242 -6.48876953 83.61474609 C-40.25573142 118.52979922 -40.25573142 118.52979922 -63.8125 119.3125 C-70.91178055 119.18342217 -76.18101518 118.07820075 -81.6484375 113.4296875 C-87.48906487 107.30415148 -89.02512149 100.53762534 -89.3125 92.25 C-88.65105134 66.59130388 -71.34366124 45.97362946 -54.875 27.9375 C-54.40980957 27.42558105 -53.94461914 26.91366211 -53.46533203 26.38623047 C-41.69381957 13.59110823 -19.1379465 -7.07271936 0 0 Z M17.125 57.9375 C13.73624922 61.59987662 11.09490254 64.97777112 10.125 69.9375 C14.83683028 68.65120473 17.73137383 66.92851949 21.3125 63.625 C22.57126953 62.48611328 22.57126953 62.48611328 23.85546875 61.32421875 C27.78764256 57.22805817 27.78764256 57.22805817 29.125 51.9375 C24.20606229 51.9375 20.86208113 54.9198229 17.125 57.9375 Z M150.5625 59.4609375 C147.68745505 62.69536307 146.21535944 65.77430941 145.125 69.9375 C152.54255238 67.61951488 158.74348753 62.23592417 163.125 55.9375 C163.125 54.6175 163.125 53.2975 163.125 51.9375 C157.92381033 51.9375 154.17307211 55.94062969 150.5625 59.4609375 Z " fill="#E9008A" transform="translate(1030.875,250.0625)"/>
<path d="M0 0 C2.10746497 2.51536141 3.05881998 3.94124043 2.875 7.25 C2.58625 7.8275 2.2975 8.405 2 9 C1.01 9.33 0.02 9.66 -1 10 C-0.505 10.7734375 -0.505 10.7734375 0 11.5625 C1.48863457 15.19104677 1.62603266 17.05599423 1 21 C-0.89595906 23.90516667 -2.9482988 26.57562235 -5.15234375 29.25390625 C-7.19663201 32.29224589 -7.79544739 34.36407733 -8 38 C-6.68681738 39.89958081 -6.68681738 39.89958081 -5 41 C2.98149919 39.20823488 7.84754059 36.04011546 12.4375 29.1875 C13.30461046 27.79967046 14.16346981 26.40647383 15 25 C13.515 24.505 13.515 24.505 12 24 C10.53178526 19.70829537 11.11029039 17.05190766 12.9375 13.0625 C15.87610832 7.62853714 20.12338812 2.1798384 26.24609375 0.31640625 C26.82488281 0.21199219 27.40367187 0.10757812 28 0 C28.495 2.475 28.495 2.475 29 5 C30.19238281 4.91621094 31.38476562 4.83242188 32.61328125 4.74609375 C34.17966708 4.64291864 35.74607451 4.54007111 37.3125 4.4375 C38.49102539 4.35338867 38.49102539 4.35338867 39.69335938 4.26757812 C40.8293457 4.19506836 40.8293457 4.19506836 41.98828125 4.12109375 C42.68477783 4.0739624 43.38127441 4.02683105 44.09887695 3.97827148 C46 4 46 4 49 5 C50.64961096 7.80433864 50.99651736 9.94079516 51.1875 13.1875 C49.63570309 18.16958483 46.79264947 20.77955677 43.234375 24.5078125 C39.63602606 28.52135555 37.20709184 32.51489798 36.75 38 C36.8325 38.66 36.915 39.32 37 40 C42.47431124 39.71926609 45.74351268 37.38776719 50.046875 34.27734375 C52 33 52 33 54 33 C54.06703125 32.15695312 54.1340625 31.31390625 54.203125 30.4453125 C55.20493005 26.11397888 57.12870369 23.39784042 59.75 19.875 C60.39582031 18.96427734 60.39582031 18.96427734 61.0546875 18.03515625 C67.24133535 9.53314618 67.24133535 9.53314618 72.203125 8.57421875 C77.88888889 8.88888889 77.88888889 8.88888889 79 10 C79.17692722 14.15778974 78.70775624 16.11923669 76.06640625 19.40625 C74.46558988 21.10958171 72.85467808 22.80347566 71.234375 24.48828125 C68.30820524 27.77766439 66.71660344 30.96971365 65 35 C68.48009809 32.28382588 71.49816122 29.5405052 74.375 26.1875 C92.31090108 5.36625832 92.31090108 5.36625832 104 4 C106.42769439 8.24846519 107.50226623 11.10755489 107 16 C105.49609375 18.38671875 105.49609375 18.38671875 103.4375 20.6875 C100.37741021 24.29306034 97.58682205 27.91277154 95 31.875 C94.4225 32.75929688 93.845 33.64359375 93.25 34.5546875 C91.69655921 37.13589273 91.69655921 37.13589273 92 41 C97.02680011 39.74329997 100.31377127 37.44349537 104.265625 34.2421875 C106 33 106 33 108 33 C108.09023438 31.96875 108.18046875 30.9375 108.2734375 29.875 C109.91977055 21.09455707 117.05089534 12.52619276 124 7 C127.74866618 4.79228751 130.64964936 4.6777518 135 5 C137 7 137 7 137.0625 10 C135.74394032 17.37473494 129.91534199 23.26891177 124.625 28.1875 C122.01659231 30.67001929 120.52071968 32.26715647 120 35.875 C120 36.90625 120 37.9375 120 39 C120 39.66 120 40.32 120 41 C125.13580313 42.58024712 128.21180992 41.51141655 132.828125 39.21875 C139.11441994 35.69118881 141.70526302 31.97541991 144.65625 25.62890625 C147.9755907 19.13496354 152.85074377 12.97139465 159 9 C162.75 8.5625 162.75 8.5625 166 9 C166.66 9.66 167.32 10.32 168 11 C167.79198768 15.56856686 165.78082939 17.7327905 162.6875 20.9375 C156.41273617 27.0543774 156.41273617 27.0543774 154 35 C157.59908041 31.49937468 161.07424587 27.96464419 164.3125 24.125 C171.39441085 15.94990828 180.86870151 5.70951879 192 4 C194.47970494 7.30627325 195.87659465 10.43535876 195.75 14.63671875 C194.49611799 18.58775321 191.65209894 21.38004742 188.93359375 24.41381836 C185.02995138 28.79637982 181.84585259 33.38413332 180 39 C180.33 39.66 180.66 40.32 181 41 C186.58703989 39.60324003 190.96951701 37.08075929 195 33 C196.46184661 30.54199199 197.63490919 28.0408418 198.82421875 25.44140625 C204.37811839 13.90922262 218.62364097 5.80533829 230 1 C233.50147041 -0.1671568 236.32670036 -0.13357453 240 0 C240.66 0.33 241.32 0.66 242 1 C242.375 3.6875 242.375 3.6875 242 7 C238.50146487 10.89836771 234.36876719 12.90223424 229.75 15.3125 C220.96329262 19.93655491 213.02108165 25.2535997 208 34 C207.1319583 37.26710876 207.1319583 37.26710876 207 40 C209.09495303 41.06043651 209.09495303 41.06043651 212 41 C214.92781971 39.31665396 217.42389525 37.17231055 220 35 C220.969375 34.278125 221.93875 33.55625 222.9375 32.8125 C225.79978683 30.40786879 228.03345049 27.59342298 230.375 24.6875 C241.20338821 11.25665883 241.20338821 11.25665883 246.5 10.5 C247.7375 10.7475 247.7375 10.7475 249 11 C251.23945647 18.40743294 247.91535588 24.17065804 245 31 C244.22472206 32.93572581 243.4533693 34.87303242 242.6875 36.8125 C242.12591217 38.20870058 241.56379392 39.60468879 241 41 C241.92683594 40.3503125 242.85367187 39.700625 243.80859375 39.03125 C245.01814391 38.18737779 246.22778397 37.34363442 247.4375 36.5 C248.04916016 36.07074219 248.66082031 35.64148438 249.29101562 35.19921875 C253.88671875 32 253.88671875 32 255 32 C255.51190613 37.34827301 255.51190613 37.34827301 253.26953125 40.203125 C252.45871094 40.87859375 251.64789062 41.5540625 250.8125 42.25 C249.90113281 43.02730469 248.98976563 43.80460937 248.05078125 44.60546875 C246.00918383 46.20790053 243.92124103 47.75289755 241.79296875 49.23828125 C233.77240983 54.84299477 229.23394126 60.64593102 224.3359375 69.0859375 C219.03635555 78.18921606 211.46638885 88.1260494 201.625 92.5 C199 93 199 93 197 92 C197.69888323 77.32345221 207.0650857 68.43800625 217.4375 58.875 C221.72145329 55 221.72145329 55 224 55 C224.3403125 53.8553125 224.3403125 53.8553125 224.6875 52.6875 C226.48165488 47.64677913 228.74058077 42.84654049 231 38 C230.23816406 38.73605469 229.47632813 39.47210938 228.69140625 40.23046875 C215.2868839 52.98329156 215.2868839 52.98329156 206.75 54.625 C202.81522977 53.73073404 201.45238872 52.18147726 199 49 C197.78045901 46.3609133 196.8945853 43.77792276 196 41 C195.071875 41.804375 194.14375 42.60875 193.1875 43.4375 C192.55070312 43.97632813 191.91390625 44.51515625 191.2578125 45.0703125 C189.60818849 46.48019876 187.98087363 47.9163065 186.3671875 49.3671875 C177.17194303 57.38421123 177.17194303 57.38421123 170 57 C167 55 167 55 166 52 C165.39648275 45.79675944 167.05464995 42.03276112 169.9375 36.75 C172.7687281 31.50985556 172.7687281 31.50985556 175 26 C167.63612798 33.02224909 161.01127576 40.19414596 154.9609375 48.3828125 C151.57941281 52.89600283 151.57941281 52.89600283 148.5625 53.4375 C146 53 146 53 144.3125 50.875 C142.98203288 47.96064345 141.92675446 45.06541861 141 42 C140.59910156 42.50789063 140.19820312 43.01578125 139.78515625 43.5390625 C134.5958962 49.8226563 129.22097856 54.80405608 121.25 57.0625 C117.4064011 56.98858464 115.93705833 56.4607786 113 54 C109.70392507 49.85636295 108.36285848 46.06719188 107 41 C106.14277344 41.81984375 105.28554688 42.6396875 104.40234375 43.484375 C103.24773395 44.5732753 102.09276686 45.66179683 100.9375 46.75 C100.37611328 47.28882813 99.81472656 47.82765625 99.23632812 48.3828125 C94.50636368 52.81546489 89.95919135 57.04851133 83.1875 56.9375 C80 56 80 56 78 53 C76.84133334 45.14681484 79.71621335 39.76332818 83.37109375 33.0390625 C85.06725232 30.08066141 85.06725232 30.08066141 86 27 C85.21625 27.825 84.4325 28.65 83.625 29.5 C81 32 81 32 79 32 C78.77054688 32.53753906 78.54109375 33.07507813 78.3046875 33.62890625 C76.60751789 36.71328336 74.40408549 39.27635208 72.125 41.9375 C68.40269789 46.3254821 68.40269789 46.3254821 64.83984375 50.84375 C63 53 63 53 60.4375 53.5625 C58 53 58 53 56.25 51.5 C54.49844206 47.99688413 54.32484732 44.89816789 54 41 C53.28714844 41.59167969 52.57429687 42.18335938 51.83984375 42.79296875 C35.6822501 56.12352718 35.6822501 56.12352718 30 56 C26.62454766 53.89971854 25.26599039 52.79797116 24 49 C22.71725288 39.21905317 27.37626514 30.7387302 33.234375 23.078125 C33.81703125 22.39234375 34.3996875 21.7065625 35 21 C30.01888245 21.19816381 25.55370575 21.39282063 21.95703125 25.11328125 C20.8027042 26.85401701 19.68739306 28.62115961 18.609375 30.41015625 C16.67207388 33.52770635 14.38716666 35.78504398 11.73828125 38.29296875 C9.91639573 40.08210127 8.31679904 41.97242036 6.6875 43.9375 C1.64060732 49.78187008 -4.50253647 55.66156282 -12 58 C-15.75 57.75 -15.75 57.75 -19 57 C-20.28365387 54.43269226 -20.13275635 52.55347003 -20.125 49.6875 C-20.12757813 48.74261719 -20.13015625 47.79773438 -20.1328125 46.82421875 C-20.00518007 44.11015257 -19.56125648 41.65217373 -19 39 C-19.43344727 39.4439209 -19.86689453 39.8878418 -20.31347656 40.34521484 C-22.28701429 42.36041732 -24.26838304 44.36774289 -26.25 46.375 C-26.93191406 47.07367188 -27.61382813 47.77234375 -28.31640625 48.4921875 C-29.31220703 49.49765625 -29.31220703 49.49765625 -30.328125 50.5234375 C-30.9355957 51.14138184 -31.54306641 51.75932617 -32.16894531 52.39599609 C-34.89517676 54.78417484 -36.88935306 56.04762345 -40.55078125 55.890625 C-43.65453478 54.76198735 -44.46745441 53.5352749 -46.1875 50.75 C-46.92033203 49.59757812 -46.92033203 49.59757812 -47.66796875 48.421875 C-48.99848186 46.00276025 -50.03343159 43.58362363 -51 41 C-51.81791016 41.87011719 -51.81791016 41.87011719 -52.65234375 42.7578125 C-60.0366046 50.40714938 -67.50957903 57.33121241 -78.5 58.3125 C-83.56145174 57.86058467 -86.61740991 56.34418481 -90.25 52.8125 C-94.071797 46.67032625 -94.92000734 39.70827287 -93.53515625 32.62109375 C-91.91091134 26.32594336 -89.2871194 21.84323159 -85 17 C-84.4740625 16.39285156 -83.948125 15.78570312 -83.40625 15.16015625 C-77.6308815 8.93528973 -69.09602836 2.62998469 -60.4296875 1.734375 C-59.16511719 1.74210937 -59.16511719 1.74210937 -57.875 1.75 C-57.02679687 1.74484375 -56.17859375 1.7396875 -55.3046875 1.734375 C-53 2 -53 2 -50 4 C-48.61282165 8.26061922 -48.94397479 11.20533398 -50.95703125 15.22265625 C-54.65288694 21.5208373 -59.2633304 25.06185032 -65.4375 28.8125 C-66.38641113 29.39040283 -66.38641113 29.39040283 -67.35449219 29.97998047 C-71.48612678 32.38707889 -75.35392141 33.86695632 -80 35 C-79.69181644 36.31352023 -79.37832335 37.62579572 -79.0625 38.9375 C-78.88847656 39.66839844 -78.71445312 40.39929688 -78.53515625 41.15234375 C-78.16112431 42.99969898 -78.16112431 42.99969898 -77 44 C-69.73051943 45.13585634 -64.94052606 42.99539806 -59 39 C-58.26136719 38.53078125 -57.52273438 38.0615625 -56.76171875 37.578125 C-51.86293445 34.24659345 -50.21080809 31.57508128 -48 26 C-39.85024883 13.98852058 -15.27944505 -5.20890172 0 0 Z M-73.8203125 18.78125 C-76.75881837 22.01786516 -78.72513768 24.46477169 -79 29 C-72.20464549 26.87645172 -65.83335849 21.98003925 -62 16 C-61.21053391 13.31492671 -61.21053391 13.31492671 -61 11 C-66.32827843 11 -70.14046723 15.18037137 -73.8203125 18.78125 Z M-11 14 C-13.76745463 15.25001208 -16.39702282 16.55763976 -19.0625 18 C-19.83094238 18.41282227 -20.59938477 18.82564453 -21.39111328 19.25097656 C-32.67525924 25.1357088 -32.67525924 25.1357088 -40 35 C-40.25099867 38.70893908 -40.25099867 38.70893908 -40 42 C-38.26524868 42.82089399 -38.26524868 42.82089399 -36 43 C-24.29243562 36.86044262 -16.13307536 25.7798888 -9 15 C-9.66 14.67 -10.32 14.34 -11 14 Z " fill="#E9008A" transform="translate(642,291)"/>
<path d="M0 0 C0.89235352 0.52247314 1.78470703 1.04494629 2.70410156 1.58325195 C3.72391113 2.17630127 4.7437207 2.76935059 5.79443359 3.38037109 C6.88353027 4.02095459 7.97262695 4.66153809 9.09472656 5.3215332 C10.25047536 5.99586035 11.40656922 6.66959638 12.56298828 7.34277344 C14.96453204 8.74133117 17.3645746 10.14241614 19.76367188 11.54516602 C25.31704526 14.78879232 30.89534686 17.98919998 36.46972656 21.1965332 C45.76640413 26.55555691 55.04162029 31.95037942 64.30615234 37.36474609 C71.63785135 41.64648237 78.98755637 45.89623327 86.34472656 50.1340332 C95.67682261 55.50940919 104.98864924 60.91809956 114.28588867 66.35351562 C122.83616371 71.34804928 131.41314217 76.29566714 140.00292969 81.22192383 C142.03932298 82.39288275 144.05846557 83.59432239 146.05981445 84.82421875 C148.60669396 86.22741591 150.71600603 87.14707963 153.42456055 88.06298828 C157.90937347 89.77808036 161.65338908 91.51388497 164.34472656 95.6340332 C166.7219512 104.34900206 165.826144 113.7501834 165.37469482 122.67504883 C165.22019841 126.05255469 165.15252882 129.43173449 165.07714844 132.81176758 C164.91226666 139.4235655 164.66174279 146.02787516 164.34472656 152.6340332 C163.42473877 152.0054541 162.50475098 151.376875 161.55688477 150.72924805 C158.40847912 148.55695618 158.40847912 148.55695618 154.95019531 147.1105957 C150.73965304 144.8296848 147.50543794 143.03009356 145.34472656 138.6340332 C144.96181261 134.38519902 145.22662582 130.22259122 145.48162842 125.9694519 C146.30710728 115.40960433 146.30710728 115.40960433 142.31982422 106.02661133 C136.50617061 101.27945652 129.74540423 98.28925712 122.91699219 95.27612305 C117.09149836 92.59827508 111.66317129 89.28141871 106.15722656 86.0090332 C103.97422628 84.75053111 101.78934746 83.49528152 99.60253906 82.2434082 C92.99317647 78.44065051 86.42688614 74.56785192 79.86767578 70.67944336 C72.35231152 66.22514633 64.8201187 61.80004457 57.28222656 57.3840332 C56.05338188 56.66390577 54.82454075 55.94377228 53.59570312 55.22363281 C47.94675493 51.91361078 42.29674088 48.60541938 36.6448822 45.30036926 C34.76011698 44.19797317 32.87576008 43.09488173 30.99145508 41.99169922 C28.54305795 40.55837467 26.092844 39.12822849 23.64135742 37.70019531 C18.13083959 34.48430378 12.65480088 31.22866758 7.25488281 27.8293457 C6.33263916 27.25418213 5.41039551 26.67901855 4.46020508 26.08642578 C2.7697207 25.02650013 1.08841059 23.95173496 -0.58129883 22.859375 C-1.31727295 22.39958252 -2.05324707 21.93979004 -2.81152344 21.46606445 C-3.7522168 20.85855347 -3.7522168 20.85855347 -4.71191406 20.23876953 C-7.58430403 19.34493662 -9.01562722 20.31067846 -11.65527344 21.6340332 C-13.24557831 22.48917495 -14.81800072 23.37814891 -16.37402344 24.29418945 C-17.75001709 25.1006189 -17.75001709 25.1006189 -19.15380859 25.92333984 C-20.14429199 26.50849365 -21.13477539 27.09364746 -22.15527344 27.6965332 C-23.20118652 28.31069092 -24.24709961 28.92484863 -25.32470703 29.55761719 C-27.58511608 30.88513001 -29.84479455 32.2138137 -32.10351562 33.54418945 C-35.70316455 35.6635322 -39.30766992 37.7745203 -42.91308594 39.8840332 C-54.71905179 46.79317292 -66.51227833 53.72328868 -78.28442383 60.68994141 C-85.75151796 65.10624282 -93.23289487 69.4979747 -100.71777344 73.8840332 C-101.32298828 74.23875702 -101.92820312 74.59348083 -102.55175781 74.95895386 C-108.87693152 78.66610808 -115.20351629 82.37082819 -121.53355408 86.06967163 C-124.12030482 87.58144174 -126.70640969 89.09431473 -129.29244995 90.6072998 C-130.50772266 91.31789619 -131.72330495 92.02796347 -132.9392395 92.73742676 C-140.67312195 97.24598238 -140.67312195 97.24598238 -148.31542969 101.90698242 C-148.91174194 102.27875107 -149.5080542 102.65051971 -150.12243652 103.03355408 C-151.781434 104.07216177 -153.43625599 105.11743042 -155.09082031 106.16308594 C-157.65527344 107.6340332 -157.65527344 107.6340332 -159.65527344 107.6340332 C-159.56624756 108.46950684 -159.47722168 109.30498047 -159.38549805 110.16577148 C-157.22634056 133.46795213 -157.22634056 133.46795213 -161.27539062 140.4128418 C-166.23889279 145.94471085 -172.59480394 150.28054337 -179.65527344 152.6340332 C-179.65527344 133.8240332 -179.65527344 115.0140332 -179.65527344 95.6340332 C-175.86027344 93.4477832 -172.06527344 91.2615332 -168.15527344 89.0090332 C-159.30768718 83.90817441 -150.4725328 78.78717883 -141.65527344 73.6340332 C-127.92481687 65.61119672 -114.14449243 57.67544984 -100.36425781 49.73852539 C-87.79133304 42.49583343 -75.23251985 35.23060037 -62.70483398 27.90991211 C-54.1751492 22.9289411 -45.63028227 17.97431201 -37.05859375 13.06591797 C-31.99847283 10.16482802 -26.96842735 7.23379014 -22.00292969 4.1730957 C-20.70319214 3.38358521 -20.70319214 3.38358521 -19.37719727 2.578125 C-17.77938156 1.60428592 -16.19110988 0.61453248 -14.61499023 -0.39404297 C-13.91156494 -0.81919189 -13.20813965 -1.24434082 -12.48339844 -1.68237305 C-11.58476074 -2.24613647 -11.58476074 -2.24613647 -10.66796875 -2.82128906 C-6.77199474 -3.87562167 -3.42972189 -1.76437054 0 0 Z " fill="#EA008B" transform="translate(179.6552734375,3.365966796875)"/>
<path d="M0 0 C9.57 0 19.14 0 29 0 C29.85464844 4.22425781 30.70929688 8.44851562 31.58984375 12.80078125 C32.27214722 16.16776505 32.95482779 19.53467191 33.63776398 22.9015274 C34.35869097 26.45620831 35.07895202 30.01102119 35.79760742 33.56616211 C36.48974419 36.98998534 37.18370645 40.4134339 37.87893867 43.83662987 C38.27293348 45.77903847 38.66503435 47.72183092 39.05711365 49.66462708 C39.29728714 50.84562485 39.53746063 52.02662262 39.78491211 53.2434082 C39.99587021 54.28487503 40.20682831 55.32634186 40.42417908 56.39936829 C40.97355197 59.09342867 40.97355197 59.09342867 42 62 C48.79268184 51.32210999 55.50189981 40.59649684 62.125 29.8125 C71.32007899 14.84171086 71.32007899 14.84171086 75.9375 7.4375 C76.34436035 6.78305908 76.7512207 6.12861816 77.17041016 5.4543457 C79.87973089 1.12026911 79.87973089 1.12026911 81 0 C83.21855264 -0.08783542 85.43988496 -0.10694609 87.66015625 -0.09765625 C88.65685585 -0.09553383 88.65685585 -0.09553383 89.6736908 -0.09336853 C91.80333899 -0.08775518 93.93288339 -0.07520054 96.0625 -0.0625 C97.50325369 -0.05748671 98.94400903 -0.05292351 100.38476562 -0.04882812 C103.92321102 -0.03778145 107.46159539 -0.02050792 111 0 C110.67 2.31 110.34 4.62 110 7 C106.7 7.66 103.4 8.32 100 9 C96.71464118 23.27986693 93.82346297 37.63173556 90.99853516 52.0090332 C90.24233725 55.85143607 89.47868344 59.69231299 88.71484375 63.53320312 C88.23131751 65.98688988 87.74822828 68.4406628 87.265625 70.89453125 C87.03756165 72.03718948 86.80949829 73.17984772 86.57452393 74.35713196 C86.36720642 75.41981796 86.15988892 76.48250397 85.94628906 77.57739258 C85.76294006 78.50683182 85.57959106 79.43627106 85.39068604 80.39387512 C85.00415223 82.97230199 84.9287684 85.39719801 85 88 C87.64 88.99 90.28 89.98 93 91 C92.67 93.31 92.34 95.62 92 98 C78.47 98 64.94 98 51 98 C51.66 95.69 52.32 93.38 53 91 C55.0234375 90.15234375 55.0234375 90.15234375 57.375 89.9375 C59.78298071 89.37830815 59.78298071 89.37830815 62 88 C67.89509264 76.09261856 68.82146164 60.06960078 71.25 47.125 C71.71295154 44.68348178 72.17648839 42.24207446 72.640625 39.80078125 C73.76717002 33.86844969 74.8864745 27.93478839 76 22 C75.66430496 22.56265564 75.32860992 23.12531128 74.98274231 23.70501709 C73.43396596 26.29901166 71.88301184 28.89169782 70.33203125 31.484375 C69.80420044 32.36915527 69.27636963 33.25393555 68.73254395 34.16552734 C65.48261817 39.59413943 62.15301667 44.95646525 58.6875 50.25 C57.99528099 51.3076078 57.99528099 51.3076078 57.28907776 52.38658142 C56.86883835 53.02857986 56.44859894 53.67057831 56.015625 54.33203125 C51.54589867 61.2001846 47.25606424 68.18382395 42.94995117 75.15527344 C42.33611572 76.14430664 41.72228027 77.13333984 41.08984375 78.15234375 C40.54191162 79.03913818 39.99397949 79.92593262 39.42944336 80.83959961 C38 83 38 83 36 85 C33.03 85 30.06 85 27 85 C23.37 67.18 19.74 49.36 16 31 C14.14188175 38.432473 12.37038398 45.74569576 10.95703125 53.25390625 C10.78370773 54.16204575 10.61038422 55.07018524 10.43180847 56.00584412 C10.07143782 57.89851662 9.7127472 59.79150975 9.35571289 61.68481445 C8.80762566 64.58832197 8.25279834 67.49048694 7.69726562 70.39257812 C7.34595742 72.24211219 6.99503178 74.09171896 6.64453125 75.94140625 C6.47895218 76.80697647 6.31337311 77.67254669 6.14277649 78.56434631 C5.99229355 79.366259 5.84181061 80.16817169 5.68676758 80.99438477 C5.55369705 81.69765396 5.42062653 82.40092316 5.28352356 83.12550354 C4.92522392 85.1784074 4.92522392 85.1784074 5 88 C7.64 88.99 10.28 89.98 13 91 C12.67 93.31 12.34 95.62 12 98 C1.77 98 -8.46 98 -19 98 C-19 96.02 -19 94.04 -19 92 C-18.32453125 91.86207031 -17.6490625 91.72414063 -16.953125 91.58203125 C-13.89914022 90.71261651 -11.6540716 89.76050935 -9 88 C-7.6042692 85.37685956 -7.6042692 85.37685956 -6.86035156 82.24462891 C-6.54134888 81.07740295 -6.22234619 79.910177 -5.89367676 78.70758057 C-4.41950562 72.5917135 -3.15252962 66.45457782 -1.984375 60.2734375 C-1.72159726 58.90904346 -1.45825992 57.54475709 -1.19439697 56.18057251 C-0.64895661 53.35281279 -0.10818721 50.52421802 0.42871094 47.69482422 C1.11666167 44.06993208 1.81351989 40.44682409 2.51343155 36.82422447 C3.05454721 34.02118049 3.59260642 31.21755744 4.12957001 28.41371536 C4.38575936 27.07635996 4.64253393 25.73911652 4.89990997 24.40198898 C5.25679094 22.54377125 5.60945328 20.6847448 5.96191406 18.82568359 C6.16302795 17.77013275 6.36414185 16.71458191 6.5713501 15.62704468 C7.08051923 12.95015693 7.08051923 12.95015693 7 10 C4.36 9.01 1.72 8.02 -1 7 C-0.67 4.69 -0.34 2.38 0 0 Z " fill="#00ADEC" transform="translate(1290,94)"/>
<path d="M0 0 C13.86 0 27.72 0 42 0 C41.67 2.31 41.34 4.62 41 7 C37.7 7.66 34.4 8.32 31 9 C30.39365009 11.6870227 29.78992339 14.37459638 29.1875 17.0625 C29.02185547 17.79533203 28.85621094 18.52816406 28.68554688 19.28320312 C26.99656435 26.83582308 25.51929785 34.40351073 24 42 C36.54 42.33 49.08 42.66 62 43 C62.825 38.66875 63.65 34.3375 64.5 29.875 C64.89155273 27.84255127 64.89155273 27.84255127 65.29101562 25.76904297 C65.49404297 24.68768066 65.69707031 23.60631836 65.90625 22.4921875 C66.11572266 21.39245605 66.32519531 20.29272461 66.54101562 19.15966797 C66.99180676 16.05640259 67.08249503 13.13068626 67 10 C64.36 9.01 61.72 8.02 59 7 C59.33 4.69 59.66 2.38 60 0 C73.86 0 87.72 0 102 0 C101.67 2.31 101.34 4.62 101 7 C97.7 7.66 94.4 8.32 91 9 C87.67375545 23.4177626 84.76703265 37.91248589 81.94360352 52.4362793 C81.43481125 55.04464053 80.92277564 57.65207277 80.40454102 60.25854492 C79.64980606 64.06255128 78.90745102 67.86878426 78.16796875 71.67578125 C77.93474411 72.84031326 77.70151947 74.00484528 77.46122742 75.20466614 C77.25383438 76.28737289 77.04644135 77.37007965 76.83276367 78.4855957 C76.64719406 79.43279984 76.46162445 80.38000397 76.27043152 81.35591125 C75.98480357 84.14857993 76.30675344 86.29337029 77 89 C79.31 89.66 81.62 90.32 84 91 C83.67 93.31 83.34 95.62 83 98 C69.14 98 55.28 98 41 98 C41.33 95.69 41.66 93.38 42 91 C46.95 90.01 46.95 90.01 52 89 C54.8678362 76.36931715 57.49423528 63.70780678 60 51 C47.46 51.33 34.92 51.66 22 52 C21.01 57.011875 20.02 62.02375 19 67.1875 C18.68675781 68.76039795 18.37351562 70.3332959 18.05078125 71.95385742 C17.80714844 73.20013916 17.56351563 74.4464209 17.3125 75.73046875 C17.06113281 77.00301514 16.80976562 78.27556152 16.55078125 79.58666992 C16.08382177 82.48053541 15.88294314 85.08089453 16 88 C18.64 88.99 21.28 89.98 24 91 C23.67 93.31 23.34 95.62 23 98 C9.14 98 -4.72 98 -19 98 C-18.67 95.69 -18.34 93.38 -18 91 C-13.05 90.01 -13.05 90.01 -8 89 C-4.71464118 74.72013307 -1.82346297 60.36826444 1.00146484 45.9909668 C1.75766275 42.14856393 2.52131656 38.30768701 3.28515625 34.46679688 C3.76868249 32.01311012 4.25177172 29.5593372 4.734375 27.10546875 C4.96243835 25.96281052 5.19050171 24.82015228 5.42547607 23.64286804 C5.73645233 22.04883904 5.73645233 22.04883904 6.05371094 20.42260742 C6.23705994 19.49316818 6.42040894 18.56372894 6.60931396 17.60612488 C6.99584777 15.02769801 7.0712316 12.60280199 7 10 C4.36 9.01 1.72 8.02 -1 7 C-0.67 4.69 -0.34 2.38 0 0 Z " fill="#00AEED" transform="translate(1031,94)"/>
<path d="M0 0 C13.86 0 27.72 0 42 0 C41.67 2.31 41.34 4.62 41 7 C37.7 7.66 34.4 8.32 31 9 C28.66737249 18.67389176 26.46923625 28.34363249 24.61328125 38.12109375 C24 41 24 41 23 43 C35.87 43 48.74 43 62 43 C62.66 39.04 63.32 35.08 64 31 C64.66101288 27.5099733 65.33141723 24.0233566 66.03125 20.54101562 C66.72255453 16.97515397 67.15401727 13.63340751 67 10 C64.36 9.01 61.72 8.02 59 7 C59.33 4.69 59.66 2.38 60 0 C73.86 0 87.72 0 102 0 C101.67 2.31 101.34 4.62 101 7 C97.7 7.66 94.4 8.32 91 9 C87.71464118 23.27986693 84.82346297 37.63173556 81.99853516 52.0090332 C81.24233725 55.85143607 80.47868344 59.69231299 79.71484375 63.53320312 C79.23131751 65.98688988 78.74822828 68.4406628 78.265625 70.89453125 C78.03756165 72.03718948 77.80949829 73.17984772 77.57452393 74.35713196 C77.36720642 75.41981796 77.15988892 76.48250397 76.94628906 77.57739258 C76.76294006 78.50683182 76.57959106 79.43627106 76.39068604 80.39387512 C76.00415223 82.97230199 75.9287684 85.39719801 76 88 C78.64 88.99 81.28 89.98 84 91 C83.67 93.31 83.34 95.62 83 98 C69.14 98 55.28 98 41 98 C41.33 95.69 41.66 93.38 42 91 C46.95 90.01 46.95 90.01 52 89 C54.8678362 76.36931715 57.49423528 63.70780678 60 51 C47.13 51 34.26 51 21 51 C20.505 55.95 20.505 55.95 20 61 C19.70969056 62.79228112 19.39315541 64.58096756 19.02734375 66.359375 C18.85009766 67.24753906 18.67285156 68.13570313 18.49023438 69.05078125 C18.11851671 70.86602442 17.74610915 72.68112644 17.37304688 74.49609375 C16.46104373 79.07281284 15.75898034 83.30400408 16 88 C18.64 88.99 21.28 89.98 24 91 C23.67 93.31 23.34 95.62 23 98 C9.14 98 -4.72 98 -19 98 C-18.67 95.69 -18.34 93.38 -18 91 C-13.05 90.01 -13.05 90.01 -8 89 C-4.85234282 74.3158823 -1.89860867 59.59545769 1.00146484 44.8605957 C1.75909172 41.01636829 2.52212448 37.17323591 3.28515625 33.33007812 C3.7685606 30.87766947 4.25164562 28.42519785 4.734375 25.97265625 C4.96243835 24.82797379 5.19050171 23.68329132 5.42547607 22.50392151 C5.63279358 21.44438766 5.84011108 20.38485382 6.05371094 19.29321289 C6.23705994 18.36456924 6.42040894 17.4359256 6.60931396 16.47914124 C7.10377877 13.7597498 7.10377877 13.7597498 7 10 C4.36 9.01 1.72 8.02 -1 7 C-0.67 4.69 -0.34 2.38 0 0 Z " fill="#00AEEE" transform="translate(1516,94)"/>
<path d="M0 0 C5.88581141 -0.0499351 11.77149586 -0.08596958 17.6574707 -0.10986328 C19.65423739 -0.11983827 21.65098978 -0.13342309 23.64770508 -0.15087891 C55.42398351 -0.42145077 55.42398351 -0.42145077 64 6 C67.7515086 10.23247125 69.09193778 14.39179516 69 20 C68.05969262 28.52063145 64.40220669 34.30914961 58 40 C55.05677797 42.09191972 52.04284839 44.05690768 49 46 C48.01 46.66 47.02 47.32 46 48 C46.66386719 48.29132813 47.32773437 48.58265625 48.01171875 48.8828125 C55.11094075 52.17850972 59.96802505 55.50537794 63 63 C64.06286494 71.8833133 63.51393616 79.72858054 58 87 C50.73941924 94.4376681 40.5679704 97.75173974 30.36585999 98.08641052 C27.22388365 98.11544767 24.08348237 98.11238161 20.94140625 98.09765625 C19.22497169 98.09553383 19.22497169 98.09553383 17.47386169 98.09336853 C13.83671399 98.08779301 10.19962895 98.07524498 6.5625 98.0625 C4.0891936 98.05748184 1.61588623 98.05291948 -0.85742188 98.04882812 C-6.90496912 98.0378316 -12.95248008 98.02111788 -19 98 C-19 96.02 -19 94.04 -19 92 C-17.54293274 91.49632243 -16.08429904 90.99717444 -14.625 90.5 C-13.81289063 90.2215625 -13.00078125 89.943125 -12.1640625 89.65625 C-10 89 -10 89 -8 89 C-5.56283016 76.84350481 -3.15496536 64.68118012 -0.75076866 52.5181284 C0.01648556 48.63685641 0.78484795 44.75581045 1.55566406 40.87524414 C2.30610554 37.0970725 3.05378399 33.31836386 3.79951096 29.53925896 C4.08320244 28.10413088 4.3678863 26.66919859 4.65358353 25.23446846 C5.05115911 23.23699621 5.44486159 21.23875423 5.83837891 19.24047852 C6.1757457 17.53698997 6.1757457 17.53698997 6.51992798 15.79908752 C7.08452098 12.98052187 7.08452098 12.98052187 7 10 C4.36 9.01 1.72 8.02 -1 7 C-0.67 4.69 -0.34 2.38 0 0 Z M28 8 C27.15929116 11.84017072 26.32330415 15.68133759 25.49145508 19.5234375 C25.07029759 21.46406985 24.64553411 23.40391851 24.22070312 25.34375 C22.87840191 31.55391468 21.63086537 37.675375 21 44 C28.36734363 44.47025598 34.84348622 42.94940977 40.8125 38.4375 C45.72735476 33.8312524 48.13058563 27.42538752 48.4375 20.75 C47.96217968 16.67582583 47.40128027 14.33080811 45 11 C40.7286644 8.38489657 37.73316329 7.85604196 32.75390625 7.9296875 C31.86131104 7.93983887 30.96871582 7.94999023 30.04907227 7.96044922 C29.37287842 7.97350098 28.69668457 7.98655273 28 8 Z M19 51 C18.13946081 55.32214962 17.28516227 59.64547271 16.43652344 63.9699707 C16.14720406 65.43970667 15.85620804 66.90911365 15.56347656 68.37817383 C15.1420242 70.49475347 14.72669614 72.61245872 14.3125 74.73046875 C14.06113281 76.00301514 13.80976563 77.27556152 13.55078125 78.58666992 C13.07969332 81.50612045 12.71965032 84.06062619 13 87 C15.69456005 89.69456005 17.20240777 89.72381147 21 90 C28.12386314 89.1971317 33.31145551 86.91258986 38.25 81.5625 C42.49487475 75.34679054 42.77797801 69.35089479 42 62 C39.94586188 57.20701106 37.12470165 54.87709125 32.4609375 52.8125 C29.67490908 51.8926684 27.14528768 51.61531343 24.22265625 51.39453125 C23.24176025 51.3169458 22.26086426 51.23936035 21.25024414 51.15942383 C20.50766357 51.10681396 19.76508301 51.0542041 19 51 Z " fill="#00AEED" transform="translate(471,94)"/>
<path d="M0 0 C13.53 0 27.06 0 41 0 C40.67 2.31 40.34 4.62 40 7 C36.7 7.66 33.4 8.32 30 9 C27.22049712 20.27321219 24.89254253 31.54438273 23 43 C23.59425781 42.45472656 24.18851563 41.90945312 24.80078125 41.34765625 C29.25466273 37.29552458 33.75091186 33.34418496 38.4375 29.5625 C43.27941483 25.64513751 47.88925445 21.52374519 52.47265625 17.30859375 C55.58789598 14.46298837 58.77662843 11.72195822 62 9 C60.35 8.34 58.7 7.68 57 7 C57.33 4.69 57.66 2.38 58 0 C66.91 0 75.82 0 85 0 C84.67 2.31 84.34 4.62 84 7 C82.1746875 7.4021875 82.1746875 7.4021875 80.3125 7.8125 C73.5936098 10.03806645 68.77748403 14.95174586 63.60791016 19.58203125 C61.23719013 21.67269962 58.77632854 23.64557339 56.3125 25.625 C49.95684664 30.79885544 43.77740869 36.18344339 38 42 C38.70382812 42.99515625 39.40765625 43.9903125 40.1328125 45.015625 C41.13024519 46.42705729 42.12763758 47.83851806 43.125 49.25 C43.65834961 50.00418213 44.19169922 50.75836426 44.74121094 51.53540039 C47.72209862 55.75545119 50.68855622 59.98476585 53.6328125 64.23046875 C60.92451366 74.77975086 60.92451366 74.77975086 68.5 85.125 C69.0465625 85.84945312 69.593125 86.57390625 70.15625 87.3203125 C72.54935432 89.5004711 74.90846977 90.15764485 78 91 C77.34 93.31 76.68 95.62 76 98 C62.8 98 49.6 98 36 98 C36.33 95.69 36.66 93.38 37 91 C39.31 90.67 41.62 90.34 44 90 C34.02477969 71.37563772 34.02477969 71.37563772 21 55 C19.275195 61.5689382 17.69197618 68.16213965 16.3125 74.8125 C15.93544922 76.61654297 15.93544922 76.61654297 15.55078125 78.45703125 C14.99509781 82.03153394 14.90290182 85.3888725 15 89 C17.97 89.99 17.97 89.99 21 91 C20.67 93.31 20.34 95.62 20 98 C7.13 98 -5.74 98 -19 98 C-18.67 95.69 -18.34 93.38 -18 91 C-13.05 90.01 -13.05 90.01 -8 89 C-4.77107984 74.87054533 -1.84958778 60.68324245 1.00146484 46.47314453 C1.75722906 42.71404332 2.52118709 38.95665991 3.28515625 35.19921875 C3.76873282 32.79437205 4.25182375 30.38942764 4.734375 27.984375 C4.96243835 26.86875183 5.19050171 25.75312866 5.42547607 24.60369873 C5.73645233 23.03981415 5.73645233 23.03981415 6.05371094 21.44433594 C6.23705994 20.5348822 6.42040894 19.62542847 6.60931396 18.68841553 C7.03492487 15.75967259 7.06571912 12.95546127 7 10 C4.36 9.01 1.72 8.02 -1 7 C-0.67 4.69 -0.34 2.38 0 0 Z " fill="#00ADED" transform="translate(1191,94)"/>
<path d="M0 0 C13.86 0 27.72 0 42 0 C41.67 2.31 41.34 4.62 41 7 C37.7 7.66 34.4 8.32 31 9 C28.20843243 21.01587779 25.7368267 33.09327235 23.3125 45.1875 C23.1564328 45.96284088 23.0003656 46.73818176 22.83956909 47.53701782 C22.38688355 49.78855702 21.93709181 52.04065427 21.48828125 54.29296875 C21.35300018 54.96540619 21.21771912 55.63784363 21.07833862 56.33065796 C19.01146096 66.76610889 17.39798465 76.09396697 22 86 C24.33725769 88.92157211 25.44728413 89.81576138 29 91 C38.43121746 91.73100923 45.55378815 91.65673997 52.859375 85.41015625 C63.38471121 74.77236987 64.93895477 58.00651215 67.6496582 43.98657227 C68.31615922 40.54359741 69.00141405 37.10474447 69.68945312 33.66601562 C70.12349074 31.4663616 70.55647154 29.26649872 70.98828125 27.06640625 C71.19133377 26.04446671 71.39438629 25.02252716 71.60359192 23.96961975 C72.50998541 19.24915818 73.26327754 14.8335711 73 10 C70.36 9.01 67.72 8.02 65 7 C65.33 4.69 65.66 2.38 66 0 C76.56 0 87.12 0 98 0 C97.67 2.31 97.34 4.62 97 7 C96.3085791 7.12012451 95.6171582 7.24024902 94.90478516 7.36401367 C92.06662393 8.00238505 89.61551716 8.72000926 87 10 C85.41530841 13.145163 84.87850183 14.94195329 84.375 18.3125 C84.20154053 19.19752197 84.02808105 20.08254395 83.84936523 20.99438477 C83.44252383 23.07587105 83.05510887 25.16120376 82.68212891 27.24902344 C81.42524107 34.16055698 80.00003874 41.03772341 78.57672119 47.91659546 C78.07394879 50.38137376 77.59385061 52.84973165 77.11669922 55.31958008 C74.10178205 70.50623923 69.9290069 85.13780626 56.703125 94.65234375 C45.55139104 101.28570274 31.98396966 101.47261989 19.44921875 99.41796875 C11.90467145 97.27496504 5.97008188 93.06406575 1 87 C-1.71118534 81.69557892 -2.53224292 77.47887666 -2.46875 71.5546875 C-2.46355347 70.7393454 -2.45835693 69.9240033 -2.45300293 69.08395386 C-2.17624819 58.22591724 0.23748182 47.70872598 2.5 37.125 C3.14703561 34.02395761 3.7887443 30.9219035 4.42590332 27.81881714 C4.8197422 25.90865091 5.2200384 23.99980085 5.62780762 22.09255981 C5.80799438 21.23330902 5.98818115 20.37405823 6.17382812 19.48876953 C6.33371216 18.73999542 6.49359619 17.99122131 6.6583252 17.21975708 C7.03328846 14.78373501 7.0572542 12.4609494 7 10 C4.36 9.01 1.72 8.02 -1 7 C-0.67 4.69 -0.34 2.38 0 0 Z " fill="#00ADED" transform="translate(804,94)"/>
<path d="M0 0 C2.87448676 -0.32370346 5.61377768 -0.18789148 8.50146484 -0.0871582 C9.32598145 -0.058396 10.15049805 -0.02963379 11 0 C13.62312259 9.53336093 15.99749944 19.08905995 18.10916328 28.74955559 C18.58145991 30.90866162 19.05846156 33.06668438 19.53660583 35.22450256 C20.89242532 41.34657534 22.24072894 47.47029024 23.5847168 53.5949707 C24.41432389 57.37404143 25.24965536 61.1518111 26.08839226 64.92886543 C26.40354445 66.35358742 26.71650913 67.77879531 27.02713203 69.20451164 C29.23781021 79.84746293 29.23781021 79.84746293 33 90 C36.04021368 91.59995382 36.04021368 91.59995382 39 92 C38.67 94.31 38.34 96.62 38 99 C24.8 99 11.6 99 -2 99 C-1.67 96.69 -1.34 94.38 -1 92 C3.95 91.01 3.95 91.01 9 90 C8.7834375 88.90300781 8.566875 87.80601562 8.34375 86.67578125 C8.06225708 85.22140116 7.78102059 83.76697143 7.5 82.3125 C7.35691406 81.59126953 7.21382812 80.87003906 7.06640625 80.12695312 C6.93105469 79.42119141 6.79570313 78.71542969 6.65625 77.98828125 C6.46772461 77.02208862 6.46772461 77.02208862 6.27539062 76.03637695 C6 74 6 74 6 69 C-6.87 69 -19.74 69 -33 69 C-33.66 70.65 -34.32 72.3 -35 74 C-36.67149151 76.79265555 -38.40064422 79.53750211 -40.16601562 82.27148438 C-41.97601336 85.13201684 -43.46413951 87.62820094 -44 91 C-41.36 91.33 -38.72 91.66 -36 92 C-36.33 94.31 -36.66 96.62 -37 99 C-46.24 99 -55.48 99 -65 99 C-64.67 96.69 -64.34 94.38 -64 92 C-62.72125 91.835 -61.4425 91.67 -60.125 91.5 C-52.89865182 89.00158815 -50.08825977 81.91872536 -46.53271484 75.65234375 C-43.55973403 70.50763786 -40.38191453 65.48638147 -37.25 60.4375 C-31.50262752 51.10392918 -25.79668487 41.74556402 -20.10546875 32.37768555 C-16.01494649 25.65106204 -11.8933268 18.94422324 -7.75 12.25 C-7.20061768 11.36207764 -6.65123535 10.47415527 -6.08520508 9.55932617 C-4.09241668 6.34512073 -2.09800848 3.14701272 0 0 Z M-5 24 C-6.07272672 25.57096362 -7.09505126 27.17635113 -8.09765625 28.79296875 C-8.7311499 29.81060303 -9.36464355 30.8282373 -10.01733398 31.87670898 C-10.69223877 32.96927002 -11.36714355 34.06183105 -12.0625 35.1875 C-12.7419165 36.28199463 -13.42133301 37.37648926 -14.12133789 38.50415039 C-15.47086603 40.67949233 -16.81879711 42.85582595 -18.16503906 45.03320312 C-19.69657813 47.50942222 -21.23305124 49.98240645 -22.7734375 52.453125 C-26.22340628 56.99912402 -26.22340628 56.99912402 -28 62 C-17.44 62 -6.88 62 4 62 C1.49423528 49.29219322 -1.1321638 36.63068285 -4 24 C-4.33 24 -4.66 24 -5 24 Z " fill="#00AEED" transform="translate(1455,93)"/>
<path d="M0 0 C1.11822144 0.0935376 1.11822144 0.0935376 2.2590332 0.18896484 C3.20109803 4.16706331 4.13732586 8.14651396 5.0715332 12.12646484 C5.22054077 12.76112671 5.36954834 13.39578857 5.52307129 14.04968262 C7.76150883 23.60046685 9.93362383 33.16509112 12.06762695 42.73974609 C12.30991531 43.8255748 12.55220367 44.9114035 12.80183411 46.03013611 C14.01883147 51.48686363 15.23138138 56.94453015 16.43798828 62.40356445 C16.89383149 64.45185187 17.34979951 66.50011152 17.8059082 68.54833984 C18.00884995 69.47346878 18.21179169 70.39859772 18.42088318 71.35176086 C19.42157185 75.82973368 20.48985045 80.290145 21.68188477 84.72119141 C21.89540588 85.52864807 22.108927 86.33610474 22.32891846 87.16802979 C23.47960992 89.66822961 24.44718161 90.24116203 26.9465332 91.31396484 C28.0396582 91.60271484 29.1327832 91.89146484 30.2590332 92.18896484 C29.9290332 94.49896484 29.5990332 96.80896484 29.2590332 99.18896484 C16.0590332 99.18896484 2.8590332 99.18896484 -10.7409668 99.18896484 C-10.4109668 96.87896484 -10.0809668 94.56896484 -9.7409668 92.18896484 C-4.7909668 91.69396484 -4.7909668 91.69396484 0.2590332 91.18896484 C-1.0609668 84.25896484 -2.3809668 77.32896484 -3.7409668 70.18896484 C-24.78781597 67.24763072 -24.78781597 67.24763072 -44.60424805 72.02148438 C-49.04281392 77.00233267 -51.06206631 82.82789374 -52.7409668 89.18896484 C-53.0709668 89.84896484 -53.4009668 90.50896484 -53.7409668 91.18896484 C-50.7709668 91.51896484 -47.8009668 91.84896484 -44.7409668 92.18896484 C-45.4009668 94.49896484 -46.0609668 96.80896484 -46.7409668 99.18896484 C-55.6509668 99.18896484 -64.5609668 99.18896484 -73.7409668 99.18896484 C-73.4109668 96.87896484 -73.0809668 94.56896484 -72.7409668 92.18896484 C-71.88063843 92.03923218 -71.88063843 92.03923218 -71.00292969 91.88647461 C-65.9402875 90.66246406 -63.23729584 89.18797615 -60.36206055 84.77880859 C-59.27461081 82.90972276 -58.21495702 81.0242838 -57.1784668 79.12646484 C-55.96770727 77.02665241 -54.75540903 74.92772661 -53.54174805 72.82958984 C-52.91993652 71.73582031 -52.298125 70.64205078 -51.6574707 69.51513672 C-48.51477512 64.06085842 -45.18527301 58.72441618 -41.8659668 53.37646484 C-40.52276565 51.19854379 -39.18032387 49.02015423 -37.83862305 46.84130859 C-37.16718262 45.75188965 -36.49574219 44.6624707 -35.80395508 43.54003906 C-33.34117733 39.53955536 -30.88397357 35.5356763 -28.42997742 31.52980042 C-26.06705285 27.67486748 -23.68325274 23.83333316 -21.2956543 19.99365234 C-19.14439497 16.52166178 -17.07438232 13.0350774 -15.1237793 9.44677734 C-14.74278076 8.77485352 -14.36178223 8.10292969 -13.96923828 7.41064453 C-13.02498113 5.73521384 -12.12080333 4.03735151 -11.22143555 2.33740234 C-7.64567861 -0.75970996 -4.5857126 -0.22622298 0 0 Z M-14.7409668 25.18896484 C-16.91050311 28.70819492 -19.07924657 32.22791206 -21.24731445 35.74804688 C-21.98213252 36.94088335 -22.71715229 38.1335956 -23.45239258 39.32617188 C-27.07335238 45.19973423 -30.68843212 51.07693746 -34.2644043 56.97802734 C-34.74570801 57.77160645 -35.22701172 58.56518555 -35.72290039 59.3828125 C-36.82280556 60.98860213 -36.82280556 60.98860213 -36.7409668 62.18896484 C-26.1809668 62.18896484 -15.6209668 62.18896484 -4.7409668 62.18896484 C-5.83589993 57.07842812 -6.93579057 51.96952772 -8.04907227 46.86303711 C-8.42647026 45.12443835 -8.80082896 43.38517703 -9.17211914 41.64526367 C-9.70537333 39.14892306 -10.24940148 36.65514509 -10.7956543 34.16162109 C-10.96032196 33.37932632 -11.12498962 32.59703156 -11.29464722 31.79103088 C-11.7126819 29.90829625 -12.21878388 28.04551209 -12.7409668 26.18896484 C-13.4009668 25.85896484 -14.0609668 25.52896484 -14.7409668 25.18896484 Z " fill="#00AEED" transform="translate(607.740966796875,92.81103515625)"/>
<path d="M0 0 C0.84732193 0.00359528 1.69464386 0.00719055 2.56764221 0.01089478 C3.89922363 0.01067574 3.89922363 0.01067574 5.25770569 0.01045227 C8.20666404 0.01115174 11.15556006 0.01894568 14.10450745 0.02676392 C16.14332037 0.02862798 18.18213374 0.03005194 20.22094727 0.03105164 C25.59844693 0.03487776 30.97591978 0.04470884 36.35340881 0.05575562 C41.83619321 0.06596771 47.31898192 0.07054882 52.80177307 0.07559204 C63.56806282 0.08633103 74.33432559 0.10392859 85.1006012 0.12442017 C83.7806012 7.05442017 82.4606012 13.98442017 81.1006012 21.12442017 C77.4706012 21.12442017 73.8406012 21.12442017 70.1006012 21.12442017 C70.39356995 18.29238892 70.6865387 15.46035767 70.97950745 12.62832642 C71.01946838 11.80203735 71.05942932 10.97574829 71.1006012 10.12442017 C69.44980678 8.47362574 67.46323941 8.89892569 65.19044495 8.80801392 C64.20108948 8.76611938 63.21173401 8.72422485 62.19239807 8.68106079 C61.1514801 8.64174438 60.11056213 8.60242798 59.0381012 8.56192017 C57.99331604 8.51873657 56.94853088 8.47555298 55.87208557 8.43106079 C53.28172985 8.32460782 50.6912504 8.22339202 48.1006012 8.12442017 C47.98894623 8.89617584 47.87729126 9.66793152 47.76225281 10.46307373 C46.51306371 18.86181851 44.96531652 27.17050834 43.2802887 35.49160767 C43.0136631 36.82380502 42.74748799 38.15609261 42.48173523 39.48846436 C41.36665328 45.07638859 40.24588689 50.66315196 39.11769104 56.2484436 C38.42237104 59.69229333 37.73362404 63.13740489 37.04890823 66.58337784 C36.66382516 68.51136828 36.27143983 70.43789565 35.87889099 72.36437988 C34.75402471 78.03590574 33.75213343 83.33687151 34.1006012 89.12442017 C37.0706012 89.78442017 40.0406012 90.44442017 43.1006012 91.12442017 C43.14314476 93.12396763 43.14140903 95.12483653 43.1006012 97.12442017 C42.1006012 98.12442017 42.1006012 98.12442017 40.27197266 98.24467468 C39.07617332 98.24134377 39.07617332 98.24134377 37.85621643 98.23794556 C36.95535812 98.23787003 36.05449982 98.23779449 35.12634277 98.23771667 C34.14718399 98.23255539 33.16802521 98.2273941 32.15919495 98.22207642 C31.16178787 98.22066147 30.1643808 98.21924652 29.13674927 98.2177887 C25.93716996 98.21217131 22.73765951 98.19961588 19.5381012 98.18692017 C17.37469075 98.18190741 15.2112792 98.17734411 13.04786682 98.17324829 C7.73208794 98.16219624 2.41634949 98.1454412 -2.8993988 98.12442017 C-2.5693988 95.81442017 -2.2393988 93.50442017 -1.8993988 91.12442017 C4.0406012 90.13442017 4.0406012 90.13442017 10.1006012 89.12442017 C12.52191518 77.83964043 14.8326579 66.53474719 17.08106995 55.21426392 C17.21088383 54.56126942 17.34069771 53.90827492 17.47444534 53.23549271 C18.69158553 47.11297308 19.90698649 40.99011095 21.11793518 34.86636353 C21.65854521 32.13302205 22.20066743 29.39998894 22.74447632 26.6672821 C23.25213029 24.11586334 23.75749027 21.56398684 24.26031494 19.01161194 C24.48757767 17.87184402 24.71484039 16.73207611 24.94898987 15.55776978 C25.14788315 14.55362534 25.34677643 13.5494809 25.55169678 12.51490784 C26.1006012 10.12442017 26.1006012 10.12442017 27.1006012 8.12442017 C19.8406012 8.45442017 12.5806012 8.78442017 5.1006012 9.12442017 C3.3885881 13.11911738 1.69164918 17.08560605 0.1006012 21.12442017 C-3.1993988 21.12442017 -6.4993988 21.12442017 -9.8993988 21.12442017 C-8.08997692 0.01449817 -8.08997692 0.01449817 0 0 Z " fill="#00AEEE" transform="translate(713.8993988037109,93.87557983398438)"/>
<path d="M0 0 C2.50582331 3.75873496 2.0847619 5.28282688 1.48974609 9.57910156 C0.7190438 13.38881438 -0.63825514 16.82175063 -2.1875 20.375 C-2.49558594 21.1074292 -2.80367187 21.8398584 -3.12109375 22.59448242 C-5.39155036 27.88736807 -8.01021527 32.89159981 -11.03125 37.80078125 C-12.25470131 39.93208238 -12.25470131 39.93208238 -11.40234375 41.98046875 C-11.26957031 42.64691406 -11.13679687 43.31335938 -11 44 C-14.79570961 49.57299482 -19.92460254 54.96230127 -26 58 C-28.875 58.25 -28.875 58.25 -31 58 C-32.35916394 43.86469506 -22.23184749 31.31717687 -15.13574219 19.87255859 C-13.96997139 18.00782699 -13.96997139 18.00782699 -13 16 C-24.27982707 20.54326368 -33.08035225 36.46124321 -40 46 C-40.5554248 46.76248047 -41.11084961 47.52496094 -41.68310547 48.31054688 C-47.87425085 56.81392065 -54.00945173 65.35389719 -60 74 C-59.44465576 74.11480713 -58.88931152 74.22961426 -58.31713867 74.34790039 C-42.07393217 77.73141965 -26.03092857 81.72792512 -10 86 C-11.99302405 88.6719574 -13.99465514 91.33728022 -16 94 C-16.57105469 94.763125 -17.14210938 95.52625 -17.73046875 96.3125 C-19.96187829 98.89686708 -21.80443889 100.77937114 -25.24243164 101.41381836 C-33.53456158 101.37639828 -41.2596449 99.5797211 -49.25 97.5625 C-51.87900256 96.91291782 -54.50971219 96.27075369 -57.140625 95.62890625 C-58.29079102 95.34088135 -59.44095703 95.05285645 -60.62597656 94.75610352 C-72.15955036 92.17148137 -79.74919539 92.49967815 -90.765625 96.90625 C-93.78917932 97.92870798 -95.84913056 98.32198666 -99 98 C-100 97 -100 97 -100.0625 94.125 C-99.13412795 88.23716673 -94.97647552 83.23977356 -91 79 C-86.43406304 76.05077101 -83.21889593 75.88644367 -77.875 75.9375 C-74.07585879 75.66890216 -71.15971343 75.09421016 -68.33154297 72.42578125 C-64.88763819 68.08925271 -62.19027758 63.28096661 -59.45605469 58.47802734 C-57.16605327 54.58072447 -54.56892536 50.9219729 -51.9375 47.25 C-51.44185547 46.55116699 -50.94621094 45.85233398 -50.43554688 45.13232422 C-43.469826 35.36616444 -36.12217235 25.97864488 -27.97265625 17.16796875 C-26.26413751 15.29028974 -24.69580614 13.36647787 -23.125 11.375 C-17.31530988 4.5015638 -9.25208007 -2.36223321 0 0 Z " fill="#E9008A" transform="translate(552,250)"/>
<path d="M0 0 C13.86 0 27.72 0 42 0 C41.67 2.31 41.34 4.62 41 7 C37.7 7.66 34.4 8.32 31 9 C27.8674197 23.67192507 24.86835943 38.36974321 21.94360352 53.08447266 C21.43438293 55.63731697 20.92128486 58.18939055 20.40454102 60.74072266 C19.64991032 64.46862199 18.90761998 68.1987911 18.16796875 71.9296875 C17.93474411 73.06920868 17.70151947 74.20872986 17.46122742 75.38278198 C17.25383438 76.4422403 17.04644135 77.50169861 16.83276367 78.59326172 C16.64719406 79.51968475 16.46162445 80.44610779 16.27043152 81.40060425 C15.8266383 84.41816208 15.8266383 84.41816208 17 89 C26.57 89 36.14 89 46 89 C46.99 84.71 47.98 80.42 49 76 C49.33 75.34 49.66 74.68 50 74 C53.3 74 56.6 74 60 74 C59.43499913 82.47501305 57.95425793 89.53154896 56 98 C31.25 98 6.5 98 -19 98 C-18.67 95.69 -18.34 93.38 -18 91 C-17.38511719 90.9484375 -16.77023437 90.896875 -16.13671875 90.84375 C-15.32847656 90.7303125 -14.52023437 90.616875 -13.6875 90.5 C-12.88699219 90.4071875 -12.08648438 90.314375 -11.26171875 90.21875 C-8.28795303 88.61630629 -7.86863072 86.74194021 -6.78288269 83.65081787 C-5.0928103 77.92828225 -4.01690325 72.06017071 -2.86328125 66.2109375 C-2.57652671 64.77934473 -2.28934372 63.34783773 -2.00175476 61.91641235 C-1.40334504 58.9301428 -0.80967167 55.94298287 -0.21948242 52.95507812 C0.53521725 49.13600415 1.30111075 45.31927859 2.07046795 41.50313377 C2.66410091 38.55280329 3.25212606 35.60137671 3.83844948 32.64958572 C4.11868423 31.2419224 4.40056114 29.83458491 4.68414879 28.42759323 C5.07981478 26.45985178 5.46719683 24.49045017 5.85424805 22.52099609 C6.07614304 21.40373138 6.29803802 20.28646667 6.5266571 19.13534546 C6.9943313 16.03754851 7.08638837 13.12746884 7 10 C4.36 9.01 1.72 8.02 -1 7 C-0.67 4.69 -0.34 2.38 0 0 Z " fill="#00ADED" transform="translate(908,94)"/>
<path d="M0 0 C13.86 0 27.72 0 42 0 C41.67 2.31 41.34 4.62 41 7 C40.07767578 7.09474609 40.07767578 7.09474609 39.13671875 7.19140625 C38.32847656 7.31386719 37.52023437 7.43632813 36.6875 7.5625 C35.88699219 7.66691406 35.08648438 7.77132812 34.26171875 7.87890625 C30.86556922 9.56231716 30.19746368 12.59430294 29 16 C28.39096302 18.37473907 27.85175752 20.76820708 27.37426758 23.17285156 C27.23727951 23.85180481 27.10029144 24.53075806 26.95915222 25.23028564 C26.51348645 27.44898408 26.07881481 29.66967312 25.64453125 31.890625 C25.33552592 33.44296839 25.02592054 34.99519245 24.71574402 36.54730225 C24.06985874 39.78745694 23.42903219 43.02855471 22.79223633 46.27050781 C21.97569393 50.42704252 21.14985802 54.58165987 20.32068348 58.73569107 C19.68253089 61.93503199 19.04755979 65.13499707 18.41373253 68.33519745 C18.11010006 69.86793384 17.80587483 71.40055293 17.50104713 72.93305206 C17.07689681 75.06970185 16.656624 77.20707635 16.23754883 79.34472656 C15.99788895 80.56049377 15.75822906 81.77626099 15.51130676 83.02886963 C14.9152007 85.99028908 14.9152007 85.99028908 15 89 C17.97 89.66 20.94 90.32 24 91 C23.34 93.31 22.68 95.62 22 98 C8.14 98 -5.72 98 -20 98 C-19.67 95.69 -19.34 93.38 -19 91 C-18.38511719 90.93683594 -17.77023437 90.87367188 -17.13671875 90.80859375 C-16.32847656 90.68613281 -15.52023437 90.56367188 -14.6875 90.4375 C-13.48673828 90.28087891 -13.48673828 90.28087891 -12.26171875 90.12109375 C-8.86556922 88.43768284 -8.19746368 85.40569706 -7 82 C-6.39096302 79.62526093 -5.85175752 77.23179292 -5.37426758 74.82714844 C-5.16878548 73.80871857 -5.16878548 73.80871857 -4.95915222 72.76971436 C-4.51348645 70.55101592 -4.07881481 68.33032688 -3.64453125 66.109375 C-3.33552592 64.55703161 -3.02592054 63.00480755 -2.71574402 61.45269775 C-2.06985874 58.21254306 -1.42903219 54.97144529 -0.79223633 51.72949219 C0.02430607 47.57295748 0.85014198 43.41834013 1.67931652 39.26430893 C2.31746911 36.06496801 2.95244021 32.86500293 3.58626747 29.66480255 C3.88989994 28.13206616 4.19412517 26.59944707 4.49895287 25.06694794 C4.92310319 22.93029815 5.343376 20.79292365 5.76245117 18.65527344 C6.00211105 17.43950623 6.24177094 16.22373901 6.48869324 14.97113037 C7.0847993 12.00971092 7.0847993 12.00971092 7 9 C4.03 8.34 1.06 7.68 -2 7 C-1.34 4.69 -0.68 2.38 0 0 Z " fill="#00ADEC" transform="translate(1142,94)"/>
<path d="M0 0 C13.86 0 27.72 0 42 0 C41.67 2.31 41.34 4.62 41 7 C40.3105278 7.11174057 39.6210556 7.22348114 38.91069031 7.33860779 C33.6225959 8.35507061 33.6225959 8.35507061 29.79165649 11.79031372 C29.0401498 14.20216619 28.59003731 16.53777266 28.20703125 19.03515625 C28.02759476 19.95764664 27.84815826 20.88013702 27.6632843 21.83058167 C27.2772983 23.8312801 26.91045302 25.8357451 26.56060791 27.84307861 C25.99214638 31.04422565 25.35237562 34.22301616 24.68896484 37.40576172 C23.53662517 42.94457302 22.43285132 48.49133895 21.3503418 54.04418945 C20.67776624 57.48733041 19.99445223 60.92823419 19.31054688 64.36914062 C18.87696417 66.57799947 18.44399781 68.78697941 18.01171875 70.99609375 C17.70713997 72.52416908 17.70713997 72.52416908 17.39640808 74.08311462 C16.48758514 78.7875879 15.73797472 83.18127871 16 88 C18.64 88.99 21.28 89.98 24 91 C23.67 93.31 23.34 95.62 23 98 C9.14 98 -4.72 98 -19 98 C-18.67 95.69 -18.34 93.38 -18 91 C-13.05 90.01 -13.05 90.01 -8 89 C-4.85234282 74.3158823 -1.89860867 59.59545769 1.00146484 44.8605957 C1.75909172 41.01636829 2.52212448 37.17323591 3.28515625 33.33007812 C3.7685606 30.87766947 4.25164562 28.42519785 4.734375 25.97265625 C4.96243835 24.82797379 5.19050171 23.68329132 5.42547607 22.50392151 C5.63279358 21.44438766 5.84011108 20.38485382 6.05371094 19.29321289 C6.23705994 18.36456924 6.42040894 17.4359256 6.60931396 16.47914124 C7.10377877 13.7597498 7.10377877 13.7597498 7 10 C4.36 9.01 1.72 8.02 -1 7 C-0.67 4.69 -0.34 2.38 0 0 Z " fill="#00AEEE" transform="translate(660,94)"/>
<path d="M0 0 C3.5 0.25 3.5 0.25 5.5 2.25 C5.98965911 6.49371232 5.76002933 8.75780163 3.75 12.5625 C0.51369863 16.42808219 0.51369863 16.42808219 -2.5 17.25 C-5.84977063 16.93097423 -7.09179639 16.65820361 -9.5 14.25 C-10.04354028 10.26403798 -9.65681906 8.5218197 -7.625 5 C-3.98109966 0.28436426 -3.98109966 0.28436426 0 0 Z " fill="#E8008A" transform="translate(784.5,274.75)"/>
</svg>
