<?xml version="1.0" encoding="UTF-8"?>
<!DOCTYPE svg PUBLIC "-//W3C//DTD SVG 1.1//EN" "http://www.w3.org/Graphics/SVG/1.1/DTD/svg11.dtd">
<!-- Creator: CorelDRAW -->
<svg xmlns="http://www.w3.org/2000/svg" xml:space="preserve" width="17.7778in" height="17.7778in" version="1.1" style="shape-rendering:geometricPrecision; text-rendering:geometricPrecision; image-rendering:optimizeQuality; fill-rule:evenodd; clip-rule:evenodd"
viewBox="0 0 17777.8 17777.8"
 xmlns:xlink="http://www.w3.org/1999/xlink"
 xmlns:xodm="http://www.corel.com/coreldraw/odm/2003">
 <defs>
  <style type="text/css">
   <![CDATA[
    .fil0 {fill:none}
    .fil1 {fill:#00AFEF}
    .fil4 {fill:#F5842A;fill-rule:nonzero}
    .fil3 {fill:#00AFEF;fill-rule:nonzero}
    .fil2 {fill:#A3DF4F;fill-rule:nonzero}
   ]]>
  </style>
 </defs>
 <g id="Layer_x0020_1">
  <metadata id="CorelCorpID_0Corel-Layer"/>
  <rect class="fil0" x="-0" y="-0" width="17777.81" height="17777.81"/>
  <g id="_433941496">
   <path class="fil1" d="M4366.61 10286.92l627.22 0 0 -884.22c0,-565.91 -301.85,-896.01 -638.98,-1017.84 -129.37,-47.16 -266.57,-62.88 -403.78,-62.88 -47.71,0 -95.7,2.3 -143.44,7.21 -94.64,-426.15 -292.05,-747.8 -570.59,-854.91 -251.59,-96.22 -356.65,134.93 -180.43,293.62 286.44,77.07 413.77,178.11 467.4,617.69 0,2.95 0,5.82 -0.03,8.6 -26.87,10.17 -53.26,21.52 -79.02,34.13 -2.46,-1.46 -4.98,-3 -7.59,-4.62 -192.81,-252.95 -440.25,-368.34 -728.02,-382.15 -297.03,-15.98 -452.6,48.92 -402.55,231.37 59.89,126.59 167.81,122.24 290.55,77.52 236.86,-29.81 502.24,27.34 633.4,219.14 -220,191.31 -357.72,481.84 -357.72,793.8 0,620.92 497.86,962.82 980.03,962.82 133.28,0 227.37,-27.51 348.89,-66.81l0 -561.97c-90.17,27.51 -192.09,47.16 -270.49,47.16 -74.48,0 -152.88,-19.65 -219.52,-58.95 -148.97,-82.53 -211.69,-227.93 -211.69,-353.69 0,-157.19 86.24,-298.67 211.69,-369.41 66.64,-39.3 141.12,-58.95 219.52,-58.95 74.48,0 148.96,15.72 211.69,51.09 188.17,102.18 223.44,294.74 223.44,506.95l0 825.28z"/>
   <g>
    <path class="fil2" d="M5973.53 10286.35l0 -1132c0,-151.47 71.57,-271.04 218.68,-271.04 147.11,0 218.69,119.57 218.69,271.04l0 1132 636.17 0 0 -1092.15c0,-199.3 -27.83,-554.05 -369.77,-773.27 -143.14,-91.68 -314.11,-127.55 -485.08,-127.55 -170.97,0 -341.94,35.87 -485.08,127.55 -341.94,219.22 -369.77,573.98 -369.77,773.27l0 1092.15 636.17 0zm9506.74 0l0 -2790.16 -636.17 0 0 2790.16 636.17 0z"/>
    <path class="fil3" d="M8001.32 10286.35l0 -1132c0,-151.47 71.57,-271.04 218.68,-271.04 147.12,0 218.69,119.57 218.69,271.04l0 1132 636.17 0 0 -1092.15c0,-199.3 -27.83,-554.05 -369.78,-773.27 -143.13,-91.68 -314.11,-127.55 -485.08,-127.55 -170.97,0 -341.94,35.87 -485.08,127.55 -341.94,219.22 -369.77,573.98 -369.77,773.27l0 1092.15 636.17 0zm5482.98 0l0 -1108.09c0,-107.62 7.95,-294.96 202.78,-294.96 99.4,0 202.78,59.79 202.78,255.1l0 1147.95 636.17 0 0 -1159.91c0,-199.3 -31.8,-577.96 -453.27,-765.3 -107.35,-47.83 -226.63,-67.76 -341.94,-67.76 -67.59,0 -135.19,7.97 -198.8,27.9 -131.21,39.86 -270.37,139.51 -365.8,243.14 -95.43,-103.63 -234.59,-203.28 -365.8,-243.14 -166.99,-51.82 -381.7,-31.89 -540.74,39.86 -421.46,187.34 -453.27,566 -453.27,765.3l0 1159.91 636.17 0 0 -1147.95c0,-47.83 0,-255.1 202.78,-255.1 194.83,0 202.78,195.31 202.78,294.96l0 1108.09 636.17 0z"/>
    <path class="fil4" d="M10852.15 10286.35l636.17 0 0 -896.83c0,-573.98 -306.16,-908.8 -648.09,-1032.36 -131.21,-47.83 -270.37,-63.78 -409.54,-63.78 -178.93,0 -361.82,31.89 -520.86,111.61 -341.94,167.41 -572.56,538.1 -572.56,944.67 0,629.78 504.96,976.56 994.02,976.56 135.19,0 230.61,-27.9 353.87,-67.76l0 -569.99c-91.45,27.9 -194.83,47.83 -274.35,47.83 -75.55,0 -155.07,-19.93 -222.66,-59.79 -151.09,-83.7 -214.71,-231.19 -214.71,-358.74 0,-159.44 87.48,-302.93 214.71,-374.68 67.59,-39.86 143.14,-59.79 222.66,-59.79 75.54,0 151.09,15.94 214.7,51.81 190.85,103.63 226.63,298.94 226.63,514.19l0 837.05z"/>
   </g>
  </g>
 </g>
</svg>
