<?xml version="1.0" encoding="UTF-8"?>
<!DOCTYPE svg PUBLIC "-//W3C//DTD SVG 1.1//EN" "http://www.w3.org/Graphics/SVG/1.1/DTD/svg11.dtd">
<!-- Creator: CorelDRAW -->
<svg xmlns="http://www.w3.org/2000/svg" xml:space="preserve" width="17.7778in" height="17.7778in" version="1.1" style="shape-rendering:geometricPrecision; text-rendering:geometricPrecision; image-rendering:optimizeQuality; fill-rule:evenodd; clip-rule:evenodd"
viewBox="0 0 17777.8 17777.8"
 xmlns:xlink="http://www.w3.org/1999/xlink"
 xmlns:xodm="http://www.corel.com/coreldraw/odm/2003">
 <defs>
  <style type="text/css">
   <![CDATA[
    .fil0 {fill:none}
    .fil1 {fill:#145C3B}
    .fil2 {fill:#77A81E}
    .fil3 {fill:#205B3B;fill-rule:nonzero}
   ]]>
  </style>
 </defs>
 <g id="Layer_x0020_1">
  <metadata id="CorelCorpID_0Corel-Layer"/>
  <rect class="fil0" x="-0" y="5799.04" width="17777.81" height="6179.72"/>
  <g id="LOGO_x0020_MASJID_x0020_IBNU_x0020_SINA">
   <g id="LOGO_x0020_UTAMA">
    <g>
     <g>
      <polygon class="fil1" points="3311.6,8634.11 2822.83,8635.94 2822.83,9124.69 2085.37,9124.69 2087.53,8880.31 2576.51,8880.98 2578.45,8389.39 2818.5,8387.23 3311.85,8389.39 "/>
      <polygon class="fil2" points="3310.98,8877.7 3310.98,9121.92 3066.6,9121.92 3066.6,8877.54 "/>
      <polygon class="fil2" points="2333.59,8392.31 2333.59,8636.54 2089.22,8636.54 2089.22,8392.17 "/>
     </g>
     <g>
      <polygon class="fil1" points="3556.4,10843.51 3558.56,9615.13 2821.1,9617.3 2821.24,10108.21 1839.27,10108.21 1841.43,10596.96 2086.21,10596.95 2085.81,10352.59 2332.35,10352.59 2331.06,10596.96 2576.72,10596.96 2578.89,10352.59 2821.1,10353.13 2821.1,10599.13 3067.64,10596.96 3069.14,10353.18 3312.02,10352.59 3312.02,10843.51 1597.05,10843.51 1597.05,9861.67 2573.23,9864.18 2576.72,9370.75 3802.94,9372.92 3802.94,10843.51 "/>
      <polygon class="fil2" points="3312.02,9861.82 3312.02,10106.05 3067.64,10106.05 3067.64,9861.67 "/>
      <polygon class="fil2" points="1838.66,9372.46 1838.66,9616.69 1594.28,9616.69 1594.28,9372.31 "/>
      <polygon class="fil2" points="2330.19,9370.91 2330.19,9615.13 2085.81,9615.13 2085.81,9370.75 "/>
     </g>
    </g>
    <path class="fil1" d="M2724.24 7381.99c8.01,66.52 13.02,87.17 54.51,143.6 77.05,102.12 225.06,219.38 434.19,349.67 599.77,367.69 663.19,678.43 585.58,1361.37 -105.52,-32.32 -207.51,-73.65 -298.02,-144.32 5.21,-156.67 0.86,-300.09 -6.42,-476.2 -13.1,-266.63 -562.35,-662.99 -792.89,-757.01 -240.44,98.06 -780.02,495 -792.89,757.01 -7.28,176.11 -11.63,319.53 -6.42,476.2 -90.51,70.68 -192.5,112.01 -298.02,144.33 -77.61,-682.95 -14.19,-993.69 585.58,-1361.38 209.13,-130.3 357.15,-247.56 434.19,-349.67 41.49,-56.43 46.5,-77.08 54.51,-143.6 7.85,-0.1 15.59,-0.15 23.34,-0.15 7.56,0 15.11,0.05 22.77,0.15z"/>
    <path class="fil1" d="M2955.5 7183.96c-3.9,139 -117.8,250.48 -257.74,250.48 -142.41,0 -257.85,-115.44 -257.85,-257.85 0,-115.44 75.87,-213.16 180.46,-246.02 -48.56,39.65 -79.56,99.97 -79.56,167.55 0,119.41 96.8,216.21 216.2,216.21 88.91,0 165.26,-53.67 198.48,-130.36z"/>
   </g>
   <g id="TEXT">
    <path id="JATIBENING" class="fil3" d="M4947 9955.24l0 601.37c0,93.1 -26.21,164.81 -78.63,215.14 -52.42,50.32 -123.08,75.49 -211.99,75.49 -93.1,0 -167.75,-26.42 -223.94,-79.26 -56.2,-52.84 -84.3,-127.91 -84.3,-225.2l213.88 0c0,36.91 7.55,64.79 22.65,83.67 15.1,18.87 36.91,28.31 65.42,28.31 26,0 46.13,-8.39 60.39,-25.16 14.26,-16.78 21.39,-41.1 21.39,-72.97l0 -601.37 215.14 0zm723.41 727.19l-329.63 0 -52.84 156.01 -225.2 0 319.56 -883.19 249.11 0 319.56 883.19 -227.72 0 -52.84 -156.01zm-55.36 -166.07l-109.45 -323.33 -108.2 323.33 217.65 0zm1068.13 -561.11l0 172.36 -234.01 0 0 710.83 -215.13 0 0 -710.83 -234.01 0 0 -172.36 683.15 0zm323.33 0l0 883.19 -215.14 0 0 -883.19 215.14 0zm690.7 430.27c51.16,10.91 92.26,36.28 123.3,76.12 31.03,39.84 46.55,85.34 46.55,136.5 0,73.81 -25.79,132.31 -77.37,175.5 -51.59,43.2 -123.51,64.8 -215.77,64.8l-411.4 0 0 -883.19 397.56 0c89.74,0 159.99,20.55 210.73,61.65 50.74,41.1 76.11,96.87 76.11,167.33 0,52 -13.63,95.2 -40.89,129.58 -27.26,34.39 -63.54,58.3 -108.83,71.71zm-319.56 -72.97l140.91 0c35.23,0 62.28,-7.76 81.15,-23.28 18.87,-15.52 28.31,-38.37 28.31,-68.57 0,-30.19 -9.44,-53.26 -28.31,-69.2 -18.87,-15.93 -45.92,-23.9 -81.15,-23.9l-140.91 0 0 184.94zm158.52 352.27c36.07,0 63.96,-8.18 83.67,-24.53 19.71,-16.35 29.57,-40.05 29.57,-71.08 0,-31.04 -10.28,-55.36 -30.83,-72.97 -20.55,-17.61 -48.85,-26.42 -84.92,-26.42l-156 0 0 195 158.52 0zm670.57 -537.21l0 178.65 288.11 0 0 166.07 -288.11 0 0 193.75 325.85 0 0 172.36 -540.98 0 0 -883.19 540.98 0 0 172.36 -325.85 0zm1255.59 710.83l-215.13 0 -359.82 -544.76 0 544.76 -215.14 0 0 -883.19 215.14 0 359.82 547.28 0 -547.28 215.13 0 0 883.19zm371.14 -883.19l0 883.19 -215.13 0 0 -883.19 215.13 0zm946.1 883.19l-215.14 0 -359.82 -544.76 0 544.76 -215.13 0 0 -883.19 215.13 0 359.82 547.28 0 -547.28 215.14 0 0 883.19zm742.28 -603.89c-15.94,-29.35 -38.79,-51.79 -68.57,-67.31 -29.78,-15.52 -64.79,-23.28 -105.05,-23.28 -69.61,0 -125.39,22.85 -167.33,68.57 -41.94,45.71 -62.91,106.73 -62.91,183.06 0,81.36 22.02,144.89 66.05,190.6 44.04,45.71 104.63,68.57 181.8,68.57 52.84,0 97.5,-13.42 133.99,-40.26 36.48,-26.84 63.11,-65.42 79.89,-115.74l-273.01 0 0 -158.52 468.02 0 0 200.04c-15.93,53.68 -42.98,103.58 -81.15,149.72 -38.16,46.13 -86.6,83.45 -145.31,111.97 -58.71,28.52 -124.97,42.78 -198.78,42.78 -87.23,0 -165.02,-19.08 -233.38,-57.24 -68.36,-38.16 -121.62,-91.21 -159.78,-159.15 -38.16,-67.94 -57.24,-145.52 -57.24,-232.75 0,-87.23 19.08,-165.02 57.24,-233.38 38.16,-68.36 91.21,-121.62 159.15,-159.78 67.94,-38.16 145.52,-57.24 232.75,-57.24 105.68,0 194.8,25.58 267.35,76.75 72.55,51.16 120.57,122.04 144.06,212.62l-237.78 0z"/>
    <g id="MASJID_x0020_IBNU_x0020_SINA">
     <path id="MASJID" class="fil3" d="M5686.93 8580.32l0 883.19 -215.13 0 0 -529.67 -197.52 529.67 -173.62 0 -198.78 -530.92 0 530.92 -215.13 0 0 -883.19 254.14 0 247.85 611.44 245.33 -611.44 252.88 0zm704.54 727.19l-329.62 0 -52.84 156 -225.2 0 319.56 -883.19 249.11 0 319.56 883.19 -227.72 0 -52.84 -156zm-55.35 -166.07l-109.46 -323.33 -108.2 323.33 217.65 0zm752.35 330.88c-64.58,0 -122.46,-10.48 -173.62,-31.45 -51.16,-20.97 -92.05,-52 -122.67,-93.1 -30.61,-41.1 -46.76,-90.59 -48.44,-148.46l228.98 0c3.35,32.71 14.68,57.66 33.97,74.85 19.29,17.2 44.45,25.79 75.48,25.79 31.87,0 57.04,-7.34 75.49,-22.02 18.45,-14.68 27.68,-35.02 27.68,-61.02 0,-21.81 -7.34,-39.84 -22.02,-54.1 -14.68,-14.26 -32.71,-26 -54.1,-35.22 -21.39,-9.23 -51.79,-19.71 -91.21,-31.45 -57.04,-17.61 -103.58,-35.23 -139.65,-52.84 -36.07,-17.61 -67.1,-43.61 -93.1,-78 -26,-34.39 -39,-79.26 -39,-134.62 0,-82.2 29.78,-146.57 89.33,-193.12 59.55,-46.55 137.13,-69.82 232.75,-69.82 97.3,0 175.72,23.28 235.27,69.82 59.55,46.55 91.42,111.34 95.61,194.38l-232.75 0c-1.68,-28.52 -12.16,-50.95 -31.45,-67.31 -19.29,-16.35 -44.04,-24.54 -74.23,-24.54 -26,0 -46.97,6.92 -62.91,20.76 -15.94,13.84 -23.91,33.76 -23.91,59.76 0,28.52 13.42,50.74 40.26,66.68 26.84,15.94 68.78,33.13 125.81,51.58 57.04,19.29 103.37,37.74 139.02,55.35 35.65,17.61 66.47,43.2 92.47,76.74 26,33.55 39,76.75 39,129.59 0,50.32 -12.79,96.04 -38.37,137.13 -25.58,41.1 -62.7,73.81 -111.34,98.13 -48.65,24.32 -106.1,36.48 -172.36,36.48zm1007.74 -892l0 601.38c0,93.1 -26.21,164.81 -78.63,215.13 -52.42,50.33 -123.09,75.49 -211.99,75.49 -93.1,0 -167.75,-26.42 -223.94,-79.26 -56.2,-52.84 -84.3,-127.91 -84.3,-225.2l213.88 0c0,36.91 7.55,64.8 22.65,83.67 15.1,18.87 36.91,28.31 65.42,28.31 26,0 46.13,-8.39 60.39,-25.16 14.26,-16.78 21.39,-41.1 21.39,-72.97l0 -601.38 215.13 0zm388.76 0l0 883.19 -215.14 0 0 -883.19 215.14 0zm486.89 0c93.1,0 174.46,18.45 244.07,55.36 69.61,36.91 123.5,88.7 161.67,155.38 38.16,66.68 57.24,143.63 57.24,230.86 0,86.39 -19.08,163.13 -57.24,230.23 -38.16,67.1 -92.26,119.1 -162.3,156 -70.04,36.91 -151.18,55.36 -243.44,55.36l-330.88 0 0 -883.19 330.88 0zm-13.84 696.99c81.36,0 144.69,-22.22 189.98,-66.68 45.29,-44.46 67.94,-107.36 67.94,-188.72 0,-81.36 -22.65,-144.69 -67.94,-189.98 -45.29,-45.29 -108.62,-67.94 -189.98,-67.94l-101.91 0 0 513.31 101.91 0z"/>
     <path id="IBNU_x0020_SINA" class="fil3" d="M10194.31 8580.32l0 883.19 -215.13 0 0 -883.19 215.13 0zm690.7 430.27c51.16,10.9 92.26,36.28 123.29,76.11 31.04,39.84 46.55,85.34 46.55,136.5 0,73.81 -25.79,132.31 -77.37,175.51 -51.58,43.19 -123.5,64.79 -215.76,64.79l-411.4 0 0 -883.19 397.56 0c89.74,0 159.99,20.55 210.73,61.65 50.74,41.1 76.11,96.87 76.11,167.33 0,52 -13.63,95.2 -40.89,129.59 -27.26,34.39 -63.53,58.29 -108.82,71.71zm-319.56 -72.97l140.91 0c35.23,0 62.28,-7.76 81.15,-23.27 18.87,-15.52 28.31,-38.37 28.31,-68.57 0,-30.2 -9.44,-53.26 -28.31,-69.2 -18.87,-15.94 -45.92,-23.91 -81.15,-23.91l-140.91 0 0 184.94zm158.52 352.27c36.07,0 63.95,-8.18 83.67,-24.53 19.71,-16.36 29.56,-40.05 29.56,-71.09 0,-31.03 -10.28,-55.35 -30.82,-72.97 -20.55,-17.61 -48.85,-26.42 -84.92,-26.42l-156.01 0 0 195.01 158.52 0zm1245.52 173.62l-215.13 0 -359.82 -544.76 0 544.76 -215.14 0 0 -883.19 215.14 0 359.82 547.28 0 -547.28 215.13 0 0 883.19zm367.37 -883.19l0 528.4c0,52.84 13,93.52 39,122.04 26,28.52 64.17,42.78 114.49,42.78 50.32,0 88.91,-14.26 115.74,-42.78 26.84,-28.52 40.26,-69.2 40.26,-122.04l0 -528.4 215.14 0 0 527.15c0,78.84 -16.78,145.52 -50.32,200.04 -33.55,54.52 -78.63,95.61 -135.25,123.3 -56.61,27.68 -119.73,41.52 -189.35,41.52 -69.61,0 -131.89,-13.63 -186.83,-40.89 -54.94,-27.26 -98.34,-68.35 -130.22,-123.29 -31.87,-54.94 -47.81,-121.83 -47.81,-200.67l0 -527.15 215.14 0zm1261.88 892c-64.58,0 -122.46,-10.48 -173.62,-31.45 -51.16,-20.97 -92.05,-52 -122.67,-93.1 -30.61,-41.1 -46.76,-90.58 -48.44,-148.46l228.98 0c3.35,32.71 14.68,57.66 33.97,74.86 19.29,17.19 44.45,25.79 75.49,25.79 31.87,0 57.03,-7.34 75.48,-22.02 18.45,-14.68 27.68,-35.02 27.68,-61.02 0,-21.81 -7.34,-39.84 -22.02,-54.1 -14.68,-14.26 -32.71,-26 -54.1,-35.23 -21.39,-9.23 -51.79,-19.71 -91.21,-31.45 -57.03,-17.61 -103.58,-35.23 -139.65,-52.84 -36.06,-17.61 -67.1,-43.61 -93.1,-78 -26,-34.39 -39,-79.26 -39,-134.62 0,-82.2 29.78,-146.57 89.33,-193.12 59.55,-46.55 137.13,-69.83 232.75,-69.83 97.29,0 175.71,23.28 235.26,69.83 59.55,46.55 91.43,111.34 95.62,194.37l-232.75 0c-1.68,-28.52 -12.16,-50.95 -31.45,-67.31 -19.29,-16.35 -44.03,-24.53 -74.23,-24.53 -26,0 -46.97,6.92 -62.91,20.76 -15.93,13.84 -23.9,33.76 -23.9,59.76 0,28.52 13.42,50.74 40.26,66.68 26.84,15.94 68.78,33.13 125.81,51.58 57.04,19.29 103.38,37.74 139.02,55.36 35.65,17.61 66.47,43.19 92.47,76.74 26,33.55 39,76.74 39,129.58 0,50.33 -12.79,96.04 -38.37,137.13 -25.58,41.1 -62.69,73.81 -111.34,98.13 -48.65,24.32 -106.1,36.48 -172.36,36.48zm669.31 -892l0 883.19 -215.14 0 0 -883.19 215.14 0zm946.1 883.19l-215.14 0 -359.82 -544.76 0 544.76 -215.14 0 0 -883.19 215.14 0 359.82 547.28 0 -547.28 215.14 0 0 883.19zm705.8 -156l-329.62 0 -52.84 156 -225.2 0 319.56 -883.19 249.11 0 319.56 883.19 -227.72 0 -52.84 -156zm-55.35 -166.07l-109.46 -323.33 -108.2 323.33 217.65 0z"/>
    </g>
   </g>
  </g>
 </g>
</svg>
