<?xml version="1.0" encoding="UTF-8"?>
<!DOCTYPE svg PUBLIC "-//W3C//DTD SVG 1.1//EN" "http://www.w3.org/Graphics/SVG/1.1/DTD/svg11.dtd">
<svg xmlns="http://www.w3.org/2000/svg" version="1.1" width="3000px" height="1000px" style="shape-rendering:geometricPrecision; text-rendering:geometricPrecision; image-rendering:optimizeQuality; fill-rule:evenodd; clip-rule:evenodd" xmlns:xlink="http://www.w3.org/1999/xlink">
<g><path style="opacity:0.97" fill="#007e85" d="M 518.5,238.5 C 520.308,238.491 521.975,238.991 523.5,240C 543.915,253.291 564.415,266.458 585,279.5C 580.667,309.833 576.333,340.167 572,370.5C 589.5,346.333 607,322.167 624.5,298C 650.862,303.171 677.196,308.838 703.5,315C 704.126,315.75 704.626,316.584 705,317.5C 710.379,342.065 715.879,366.565 721.5,391C 696.833,409 672.167,427 647.5,445C 676.903,441.267 706.236,436.767 735.5,431.5C 751.22,453.915 766.22,476.915 780.5,500.5C 766.651,522.878 752.318,544.878 737.5,566.5C 707.513,561.146 677.513,556.313 647.5,552C 671.667,569.5 695.833,587 720,604.5C 720.33,607.866 719.997,611.199 719,614.5C 713.639,638.14 708.472,661.807 703.5,685.5C 677.849,690.997 652.183,696.163 626.5,701C 608.667,676.5 590.833,652 573,627.5C 577.547,657.453 581.881,687.453 586,717.5C 563.59,732.244 540.923,746.577 518,760.5C 496.344,746.849 474.677,733.182 453,719.5C 457.225,689.149 461.559,658.816 466,628.5C 448.5,652.667 431,676.833 413.5,701C 386.882,695.888 360.382,690.055 334,683.5C 327.915,658.41 322.082,633.244 316.5,608C 340.781,589.521 365.448,571.521 390.5,554C 361.097,557.733 331.764,562.233 302.5,567.5C 286.78,545.085 271.78,522.085 257.5,498.5C 271.349,476.122 285.682,454.122 300.5,432.5C 330.482,437.886 360.482,442.72 390.5,447C 366.333,429.5 342.167,412 318,394.5C 317.333,392.5 317.333,390.5 318,388.5C 323.662,363.521 329.162,338.521 334.5,313.5C 360.151,308.003 385.817,302.837 411.5,298C 429.333,322.5 447.167,347 465,371.5C 461.003,343.848 456.67,316.181 452,288.5C 451.333,286.167 451.333,283.833 452,281.5C 474.317,267.267 496.483,252.934 518.5,238.5 Z M 518.5,262.5 C 533.945,271.727 549.278,281.227 564.5,291C 565.574,291.739 566.241,292.739 566.5,294C 562.828,316.201 558.994,338.367 555,360.5C 543.252,368.291 531.418,375.958 519.5,383.5C 506.415,375.876 493.581,367.876 481,359.5C 477.608,338.147 474.108,316.813 470.5,295.5C 470.529,293.971 471.196,292.804 472.5,292C 488.068,282.392 503.401,272.558 518.5,262.5 Z M 402.5,319.5 C 404.144,319.286 405.644,319.62 407,320.5C 419.973,338.973 433.14,357.306 446.5,375.5C 443.244,389.448 440.244,403.448 437.5,417.5C 425.811,420.172 414.144,423.006 402.5,426C 399.199,426.997 395.866,427.33 392.5,427C 374.779,413.613 356.779,400.613 338.5,388C 342.893,369.54 347.226,351.04 351.5,332.5C 368.455,327.779 385.455,323.445 402.5,319.5 Z M 629.5,319.5 C 648.81,323.629 668.143,327.629 687.5,331.5C 690.928,349.811 694.928,367.977 699.5,386C 680.99,399.089 662.656,412.422 644.5,426C 629.848,424.07 615.348,421.236 601,417.5C 597.5,403.331 594,389.164 590.5,375C 603.73,356.613 616.73,338.113 629.5,319.5 Z M 466.5,375.5 C 484.074,386.539 501.907,397.206 520,407.5C 536.593,397.242 552.926,386.575 569,375.5C 574.309,395.068 579.476,414.735 584.5,434.5C 603.769,439.188 623.102,443.688 642.5,448C 631.635,465.368 620.968,482.868 610.5,500.5C 621.167,516.833 631.833,533.167 642.5,549.5C 622.726,555.069 602.892,560.402 583,565.5C 579.276,584.621 575.11,603.621 570.5,622.5C 553.066,612.034 535.566,601.701 518,591.5C 501.407,601.758 485.074,612.425 469,623.5C 463.691,603.932 458.524,584.265 453.5,564.5C 434.231,559.812 414.898,555.312 395.5,551C 406.167,533.667 416.833,516.333 427.5,499C 416.748,482.162 405.748,465.495 394.5,449C 414.617,444.138 434.617,438.971 454.5,433.5C 459.141,414.296 463.141,394.962 466.5,375.5 Z M 723.5,450.5 C 724.376,450.369 725.043,450.702 725.5,451.5C 735.459,467.921 745.792,484.088 756.5,500C 746.875,514.749 737.375,529.582 728,544.5C 726.874,545.944 725.374,546.61 723.5,546.5C 701.833,543 680.167,539.5 658.5,536C 650.5,524 642.5,512 634.5,500C 642.292,487.584 649.959,475.084 657.5,462.5C 679.565,458.268 701.565,454.268 723.5,450.5 Z M 311.5,452.5 C 334.461,455.577 357.294,459.244 380,463.5C 387.461,475.591 395.294,487.424 403.5,499C 395.708,511.416 388.041,523.916 380.5,536.5C 358.017,540.735 335.517,544.735 313,548.5C 302.5,532 292,515.5 281.5,499C 291.723,483.617 301.723,468.117 311.5,452.5 Z M 456.5,515.5 C 466.513,516.07 476.18,518.236 485.5,522C 495.957,526.208 506.291,530.708 516.5,535.5C 517.664,542.142 517.831,548.808 517,555.5C 494.713,542.847 470.88,534.347 445.5,530C 448.999,525.006 452.666,520.173 456.5,515.5 Z M 575.5,515.5 C 577.527,515.338 579.527,515.505 581.5,516C 585.765,520.041 589.432,524.541 592.5,529.5C 577.671,533.041 563.004,537.208 548.5,542C 538.942,545.446 529.942,549.946 521.5,555.5C 520.167,548.833 520.167,542.167 521.5,535.5C 538.818,526.621 556.818,519.954 575.5,515.5 Z M 639.5,571.5 C 641.527,571.338 643.527,571.505 645.5,572C 663.221,585.387 681.221,598.387 699.5,611C 695.084,629.073 690.918,647.239 687,665.5C 686.5,666.667 685.667,667.5 684.5,668C 667.331,671.834 650.164,675.667 633,679.5C 618.952,661.105 605.118,642.439 591.5,623.5C 594.756,609.552 597.756,595.552 600.5,581.5C 613.726,578.611 626.726,575.278 639.5,571.5 Z M 393.5,572.5 C 407.963,574.859 422.297,577.859 436.5,581.5C 440.167,595.5 443.833,609.5 447.5,623.5C 434.748,642.419 421.414,660.919 407.5,679C 388.543,675.242 369.543,671.409 350.5,667.5C 347.047,649.191 343.047,631.024 338.5,613C 356.901,599.479 375.234,585.979 393.5,572.5 Z M 517.5,615.5 C 531.027,622.85 544.194,630.85 557,639.5C 560.392,660.853 563.892,682.187 567.5,703.5C 567.471,705.029 566.804,706.196 565.5,707C 549.833,716.833 534.167,726.667 518.5,736.5C 502.246,726.885 486.579,716.552 471.5,705.5C 475.119,683.12 478.952,660.786 483,638.5C 494.677,630.97 506.177,623.304 517.5,615.5 Z"/></g>
<g><path style="opacity:0.983" fill="#007e85" d="M 1331.5,310.5 C 1348.89,308.543 1365.56,311.043 1381.5,318C 1397.35,327.189 1405.35,341.023 1405.5,359.5C 1392.5,359.5 1379.5,359.5 1366.5,359.5C 1366.48,348.618 1361.15,342.118 1350.5,340C 1343.03,338.895 1336.03,340.228 1329.5,344C 1321.45,351.651 1321.78,358.984 1330.5,366C 1333,367.08 1335.33,368.414 1337.5,370C 1350.66,374.608 1363.66,379.608 1376.5,385C 1404.77,400.484 1412.27,422.984 1399,452.5C 1387.03,466.233 1371.86,473.067 1353.5,473C 1334.89,474.346 1317.56,470.346 1301.5,461C 1287.18,450.518 1280.18,436.352 1280.5,418.5C 1293.5,418.5 1306.5,418.5 1319.5,418.5C 1319.67,435.83 1328.5,444.163 1346,443.5C 1360.21,443.962 1366.87,437.295 1366,423.5C 1363.11,417.608 1358.61,413.441 1352.5,411C 1336.06,406.079 1320.4,399.412 1305.5,391C 1283.67,374.514 1279.5,354.348 1293,330.5C 1303.76,319.706 1316.59,313.039 1331.5,310.5 Z"/></g>
<g><path style="opacity:0.983" fill="#007e85" d="M 1904.5,310.5 C 1923.25,307.959 1940.92,311.126 1957.5,320C 1971.46,329.417 1978.46,342.583 1978.5,359.5C 1965.5,359.5 1952.5,359.5 1939.5,359.5C 1938.32,346.491 1931.16,339.825 1918,339.5C 1909.52,339.405 1902.86,342.738 1898,349.5C 1895.74,357.825 1898.57,363.991 1906.5,368C 1917.6,372.922 1928.93,377.256 1940.5,381C 1956.75,386.589 1968.59,397.089 1976,412.5C 1983.52,439.627 1974.35,458.46 1948.5,469C 1928.39,475.172 1908.39,474.838 1888.5,468C 1865.36,459.541 1853.69,443.041 1853.5,418.5C 1866.5,418.5 1879.5,418.5 1892.5,418.5C 1891.53,432.359 1897.86,440.526 1911.5,443C 1919.18,444.263 1926.51,443.263 1933.5,440C 1941.64,431.403 1941.3,423.069 1932.5,415C 1920.49,409.218 1908.15,404.218 1895.5,400C 1879.22,394.384 1867.39,383.884 1860,368.5C 1853.94,345.991 1861.11,329.158 1881.5,318C 1889.03,314.709 1896.7,312.209 1904.5,310.5 Z"/></g>
<g><path style="opacity:0.996" fill="#007e85" d="M 855.5,312.5 C 868.5,312.5 881.5,312.5 894.5,312.5C 894.5,333.167 894.5,353.833 894.5,374.5C 912.833,374.5 931.167,374.5 949.5,374.5C 949.5,353.833 949.5,333.167 949.5,312.5C 962.167,312.5 974.833,312.5 987.5,312.5C 987.5,365.167 987.5,417.833 987.5,470.5C 974.833,470.5 962.167,470.5 949.5,470.5C 949.5,448.833 949.5,427.167 949.5,405.5C 931.167,405.5 912.833,405.5 894.5,405.5C 894.5,427.167 894.5,448.833 894.5,470.5C 881.5,470.5 868.5,470.5 855.5,470.5C 855.5,417.833 855.5,365.167 855.5,312.5 Z"/></g>
<g><path style="opacity:0.984" fill="#007e85" d="M 1058.5,312.5 C 1070.85,312.168 1083.18,312.501 1095.5,313.5C 1114.83,365.5 1134.17,417.5 1153.5,469.5C 1139.5,470.833 1125.5,470.833 1111.5,469.5C 1108.59,460.28 1105.59,451.114 1102.5,442C 1085.5,441.333 1068.5,441.333 1051.5,442C 1048.41,451.114 1045.41,460.28 1042.5,469.5C 1028.51,470.666 1014.51,470.833 1000.5,470C 1019.98,417.544 1039.31,365.044 1058.5,312.5 Z M 1076.5,359.5 C 1082.07,376.6 1087.74,393.767 1093.5,411C 1082.5,411.667 1071.5,411.667 1060.5,411C 1066.13,393.934 1071.47,376.767 1076.5,359.5 Z"/></g>
<g><path style="opacity:0.991" fill="#007e85" d="M 1164.5,312.5 C 1199.83,312.5 1235.17,312.5 1270.5,312.5C 1270.5,322.5 1270.5,332.5 1270.5,342.5C 1248.17,342.5 1225.83,342.5 1203.5,342.5C 1203.5,354.167 1203.5,365.833 1203.5,377.5C 1223.83,377.5 1244.17,377.5 1264.5,377.5C 1264.5,387.833 1264.5,398.167 1264.5,408.5C 1244.17,408.5 1223.83,408.5 1203.5,408.5C 1203.5,429.167 1203.5,449.833 1203.5,470.5C 1190.5,470.5 1177.5,470.5 1164.5,470.5C 1164.5,417.833 1164.5,365.167 1164.5,312.5 Z"/></g>
<g><path style="opacity:0.987" fill="#007e85" d="M 1424.5,312.5 C 1437.5,312.5 1450.5,312.5 1463.5,312.5C 1463.5,333.167 1463.5,353.833 1463.5,374.5C 1481.83,374.5 1500.17,374.5 1518.5,374.5C 1518.5,353.833 1518.5,333.167 1518.5,312.5C 1531.5,312.5 1544.5,312.5 1557.5,312.5C 1557.5,365.167 1557.5,417.833 1557.5,470.5C 1544.5,470.5 1531.5,470.5 1518.5,470.5C 1518.5,448.833 1518.5,427.167 1518.5,405.5C 1500.17,405.5 1481.83,405.5 1463.5,405.5C 1463.5,427.167 1463.5,448.833 1463.5,470.5C 1450.5,470.5 1437.5,470.5 1424.5,470.5C 1424.5,417.833 1424.5,365.167 1424.5,312.5 Z"/></g>
<g><path style="opacity:0.995" fill="#007e85" d="M 1637.5,312.5 C 1650.5,312.5 1663.5,312.5 1676.5,312.5C 1676.5,365.167 1676.5,417.833 1676.5,470.5C 1663.5,470.5 1650.5,470.5 1637.5,470.5C 1637.5,417.833 1637.5,365.167 1637.5,312.5 Z"/></g>
<g><path style="opacity:0.987" fill="#037d85" d="M 1702.5,312.5 C 1715.75,312.177 1728.91,312.511 1742,313.5C 1759.75,345.329 1777.75,376.996 1796,408.5C 1796.5,376.502 1796.67,344.502 1796.5,312.5C 1809.5,312.5 1822.5,312.5 1835.5,312.5C 1835.5,365.167 1835.5,417.833 1835.5,470.5C 1822.15,470.833 1808.82,470.499 1795.5,469.5C 1777.41,438.329 1759.58,406.996 1742,375.5C 1741.5,407.165 1741.33,438.832 1741.5,470.5C 1728.5,470.5 1715.5,470.5 1702.5,470.5C 1702.5,417.833 1702.5,365.167 1702.5,312.5 Z"/></g>
<g><path style="opacity:0.977" fill="#007e85" d="M 1988.5,312.5 C 2032.83,312.5 2077.17,312.5 2121.5,312.5C 2121.5,322.5 2121.5,332.5 2121.5,342.5C 2105.83,342.5 2090.17,342.5 2074.5,342.5C 2074.5,385.167 2074.5,427.833 2074.5,470.5C 2061.5,470.5 2048.5,470.5 2035.5,470.5C 2035.5,427.833 2035.5,385.167 2035.5,342.5C 2019.83,342.5 2004.17,342.5 1988.5,342.5C 1988.5,332.5 1988.5,322.5 1988.5,312.5 Z"/></g>
<g><path style="opacity:0.97" fill="#007e85" d="M 2139.5,312.5 C 2152.5,312.5 2165.5,312.5 2178.5,312.5C 2178.5,365.167 2178.5,417.833 2178.5,470.5C 2165.5,470.5 2152.5,470.5 2139.5,470.5C 2139.5,417.833 2139.5,365.167 2139.5,312.5 Z"/></g>
<g><path style="opacity:0.987" fill="#007e85" d="M 2192.5,312.5 C 2236.83,312.5 2281.17,312.5 2325.5,312.5C 2325.5,322.5 2325.5,332.5 2325.5,342.5C 2309.83,342.5 2294.17,342.5 2278.5,342.5C 2278.5,385.167 2278.5,427.833 2278.5,470.5C 2265.5,470.5 2252.5,470.5 2239.5,470.5C 2239.5,427.833 2239.5,385.167 2239.5,342.5C 2223.83,342.5 2208.17,342.5 2192.5,342.5C 2192.5,332.5 2192.5,322.5 2192.5,312.5 Z"/></g>
<g><path style="opacity:0.991" fill="#007e85" d="M 2339.5,312.5 C 2352.83,312.5 2366.17,312.5 2379.5,312.5C 2379.33,349.835 2379.5,387.168 2380,424.5C 2382.67,436.834 2390.34,442.834 2403,442.5C 2414.83,443.258 2422.17,437.925 2425,426.5C 2426.46,388.535 2426.96,350.535 2426.5,312.5C 2439.5,312.5 2452.5,312.5 2465.5,312.5C 2465.67,348.835 2465.5,385.168 2465,421.5C 2462.77,447.726 2448.94,464.226 2423.5,471C 2402.99,475.536 2383.32,473.202 2364.5,464C 2348.34,452.856 2340.18,437.356 2340,417.5C 2339.5,382.502 2339.33,347.502 2339.5,312.5 Z"/></g>
<g><path style="opacity:0.974" fill="#007e85" d="M 2479.5,312.5 C 2523.83,312.5 2568.17,312.5 2612.5,312.5C 2612.5,322.5 2612.5,332.5 2612.5,342.5C 2596.83,342.5 2581.17,342.5 2565.5,342.5C 2565.5,385.167 2565.5,427.833 2565.5,470.5C 2552.5,470.5 2539.5,470.5 2526.5,470.5C 2526.5,427.833 2526.5,385.167 2526.5,342.5C 2510.83,342.5 2495.17,342.5 2479.5,342.5C 2479.5,332.5 2479.5,322.5 2479.5,312.5 Z"/></g>
<g><path style="opacity:0.977" fill="#007e85" d="M 2627.5,312.5 C 2664.17,312.5 2700.83,312.5 2737.5,312.5C 2737.5,322.5 2737.5,332.5 2737.5,342.5C 2713.83,342.5 2690.17,342.5 2666.5,342.5C 2666.5,353.167 2666.5,363.833 2666.5,374.5C 2686.5,374.5 2706.5,374.5 2726.5,374.5C 2726.5,384.167 2726.5,393.833 2726.5,403.5C 2706.5,403.5 2686.5,403.5 2666.5,403.5C 2666.5,415.833 2666.5,428.167 2666.5,440.5C 2690.17,440.5 2713.83,440.5 2737.5,440.5C 2737.5,450.5 2737.5,460.5 2737.5,470.5C 2700.83,470.5 2664.17,470.5 2627.5,470.5C 2627.5,417.833 2627.5,365.167 2627.5,312.5 Z"/></g>
<g><path style="opacity:0.893" fill="#007e7e" d="M 541.5,459.5 C 542.5,459.5 543.5,459.5 544.5,459.5C 544.839,464.93 544.339,470.264 543,475.5C 539.115,479.52 534.948,483.186 530.5,486.5C 532.836,487.594 532.836,488.927 530.5,490.5C 527.618,491.961 524.618,493.127 521.5,494C 523.125,494.853 523.458,495.853 522.5,497C 520.26,497.977 517.927,498.477 515.5,498.5C 515.762,499.978 515.429,501.311 514.5,502.5C 507.277,499.033 503.443,501.367 503,509.5C 498.08,515.235 496.746,514.569 499,507.5C 508.807,487.489 522.974,471.489 541.5,459.5 Z"/></g>
<g><path style="opacity:0.764" fill="#017d7d" d="M 454.5,511.5 C 462.282,511.874 469.948,513.04 477.5,515C 491.844,520.005 505.844,525.839 519.5,532.5C 535.421,524.038 552.087,517.538 569.5,513C 574.143,512.002 578.81,511.668 583.5,512C 589.855,517.892 594.855,524.725 598.5,532.5C 580.679,536.875 563.012,542.042 545.5,548C 536.292,551.854 527.459,556.354 519,561.5C 510.155,555.494 500.655,550.661 490.5,547C 474.372,541.718 458.038,537.218 441.5,533.5C 440.386,532.277 440.219,530.944 441,529.5C 445.266,523.291 449.766,517.291 454.5,511.5 Z M 456.5,515.5 C 452.666,520.173 448.999,525.006 445.5,530C 470.88,534.347 494.713,542.847 517,555.5C 517.831,548.808 517.664,542.142 516.5,535.5C 506.291,530.708 495.957,526.208 485.5,522C 476.18,518.236 466.513,516.07 456.5,515.5 Z M 575.5,515.5 C 556.818,519.954 538.818,526.621 521.5,535.5C 520.167,542.167 520.167,548.833 521.5,555.5C 529.942,549.946 538.942,545.446 548.5,542C 563.004,537.208 577.671,533.041 592.5,529.5C 589.432,524.541 585.765,520.041 581.5,516C 579.527,515.505 577.527,515.338 575.5,515.5 Z"/></g>
<g><path style="opacity:0.694" fill="#047a7a" d="M 461.5,521.5 C 470.629,520.847 479.629,522.347 488.5,526C 495.616,528.725 502.616,531.725 509.5,535C 512.152,536.153 514.152,537.987 515.5,540.5C 515.167,540.833 514.833,541.167 514.5,541.5C 497.557,532.86 479.891,526.193 461.5,521.5 Z"/></g>
<g><path style="opacity:0.707" fill="#017c7c" d="M 567.5,520.5 C 570.85,520.335 574.183,520.502 577.5,521C 559.227,526.132 541.56,532.965 524.5,541.5C 523.771,539.405 524.437,537.572 526.5,536C 539.638,529.125 553.305,523.959 567.5,520.5 Z"/></g>
<g><path style="opacity:0.746" fill="#017d7d" d="M 456.5,525.5 C 474.987,528.829 492.653,534.662 509.5,543C 512.033,544.033 513.699,545.867 514.5,548.5C 514.167,548.833 513.833,549.167 513.5,549.5C 494.015,540.507 474.015,533.007 453.5,527C 454.737,526.768 455.737,526.268 456.5,525.5 Z"/></g>
<g><path style="opacity:0.719" fill="#027c7c" d="M 579.5,525.5 C 581.564,525.687 583.564,526.187 585.5,527C 565.204,532.544 545.537,539.878 526.5,549C 525.5,549.667 524.5,549.667 523.5,549C 524.071,547.795 524.738,546.628 525.5,545.5C 542.657,536.229 560.657,529.563 579.5,525.5 Z"/></g>
<g><path style="opacity:0.704" fill="#027c7c" d="M 438.5,537.5 C 467.718,539.906 494.718,548.906 519.5,564.5C 541.241,550.634 564.908,541.801 590.5,538C 594.033,537.097 597.367,537.43 600.5,539C 584.028,542.536 567.695,546.869 551.5,552C 540.112,556.193 529.445,561.693 519.5,568.5C 494.88,553.569 468.213,544.069 439.5,540C 437.381,539.658 437.047,538.825 438.5,537.5 Z"/></g>
<g><path style="opacity:0.961" fill="#017d85" d="M 1140.5,552.5 C 1145.17,552.5 1149.83,552.5 1154.5,552.5C 1154.33,565.171 1154.5,577.838 1155,590.5C 1168.94,579.633 1182.6,579.967 1196,591.5C 1202.61,600.547 1205.45,610.714 1204.5,622C 1205.88,636.193 1201.21,647.86 1190.5,657C 1177.31,663.607 1165.15,662.107 1154,652.5C 1153.5,654.81 1153.34,657.143 1153.5,659.5C 1149.17,659.5 1144.83,659.5 1140.5,659.5C 1140.5,623.833 1140.5,588.167 1140.5,552.5 Z M 1168.5,594.5 C 1178.51,593.916 1185.34,598.249 1189,607.5C 1192.53,619.563 1191.53,631.229 1186,642.5C 1174.3,652.497 1163.96,651.164 1155,638.5C 1154.33,627.5 1154.33,616.5 1155,605.5C 1157.94,599.797 1162.44,596.131 1168.5,594.5 Z"/></g>
<g><path style="opacity:0.937" fill="#017d85" d="M 1732.5,552.5 C 1737.17,552.5 1741.83,552.5 1746.5,552.5C 1746.33,565.171 1746.5,577.838 1747,590.5C 1760.33,579.833 1773.67,579.833 1787,590.5C 1795.74,603.169 1798.74,617.169 1796,632.5C 1791.9,655.963 1778.4,664.797 1755.5,659C 1751.73,657.698 1748.56,655.531 1746,652.5C 1745.5,654.81 1745.34,657.143 1745.5,659.5C 1741.17,659.5 1736.83,659.5 1732.5,659.5C 1732.5,623.833 1732.5,588.167 1732.5,552.5 Z M 1760.5,594.5 C 1772.52,594.013 1779.68,599.68 1782,611.5C 1783.09,620.658 1782.43,629.658 1780,638.5C 1774.08,648.777 1765.58,651.611 1754.5,647C 1750.96,645.093 1748.46,642.26 1747,638.5C 1746.33,627.167 1746.33,615.833 1747,604.5C 1750.06,599.069 1754.56,595.735 1760.5,594.5 Z"/></g>
<g><path style="opacity:0.976" fill="#007e85" d="M 2285.5,552.5 C 2289.83,552.5 2294.17,552.5 2298.5,552.5C 2298.5,588.167 2298.5,623.833 2298.5,659.5C 2294.17,659.5 2289.83,659.5 2285.5,659.5C 2285.5,623.833 2285.5,588.167 2285.5,552.5 Z"/></g>
<g><path style="opacity:0.924" fill="#037b84" d="M 2580.5,552.5 C 2585.17,552.5 2589.83,552.5 2594.5,552.5C 2595.9,564.367 2593.06,575.034 2586,584.5C 2584.94,585.899 2583.61,586.899 2582,587.5C 2579.04,586.273 2576.54,584.44 2574.5,582C 2579.9,572.929 2581.9,563.096 2580.5,552.5 Z"/></g>
<g><path style="opacity:0.933" fill="#017d85" d="M 1578.5,557.5 C 1590.82,556.658 1593.82,561.491 1587.5,572C 1580.43,574.435 1576.1,572.101 1574.5,565C 1574.99,561.992 1576.33,559.492 1578.5,557.5 Z"/></g>
<g><path style="opacity:0.941" fill="#017d84" d="M 1815.5,557.5 C 1826.75,556.24 1830.08,560.74 1825.5,571C 1816.48,574.949 1811.98,572.116 1812,562.5C 1812.7,560.416 1813.86,558.749 1815.5,557.5 Z"/></g>
<g><path style="opacity:0.956" fill="#017d85" d="M 2386.5,557.5 C 2414.96,554.641 2431.46,567.308 2436,595.5C 2436.85,606.544 2436.52,617.544 2435,628.5C 2432.77,638.807 2427.6,647.307 2419.5,654C 2425,658.167 2430.5,662.333 2436,666.5C 2436.67,667.5 2436.67,668.5 2436,669.5C 2433.02,671.644 2430.19,673.978 2427.5,676.5C 2420.19,671.024 2413.02,665.357 2406,659.5C 2382.73,664.198 2366.73,655.531 2358,633.5C 2352.99,615.287 2353.66,597.287 2360,579.5C 2365.74,568.24 2374.58,560.907 2386.5,557.5 Z M 2390.5,569.5 C 2409.99,569.147 2420.49,578.814 2422,598.5C 2423.24,610.06 2422.24,621.393 2419,632.5C 2413.33,645.418 2403.5,650.585 2389.5,648C 2377.86,643.595 2371.36,635.095 2370,622.5C 2369.33,613.5 2369.33,604.5 2370,595.5C 2371.55,582.473 2378.38,573.806 2390.5,569.5 Z"/></g>
<g><path style="opacity:0.948" fill="#007e85" d="M 868.5,558.5 C 873.167,558.5 877.833,558.5 882.5,558.5C 882.5,588.167 882.5,617.833 882.5,647.5C 898.5,647.5 914.5,647.5 930.5,647.5C 930.5,651.5 930.5,655.5 930.5,659.5C 909.833,659.5 889.167,659.5 868.5,659.5C 868.5,625.833 868.5,592.167 868.5,558.5 Z"/></g>
<g><path style="opacity:0.955" fill="#007d85" d="M 1489.5,558.5 C 1503.5,558.333 1517.5,558.5 1531.5,559C 1549.7,562.206 1557.53,573.039 1555,591.5C 1552.99,598.181 1548.82,603.014 1542.5,606C 1552.83,610.843 1558.16,619.01 1558.5,630.5C 1557.81,646.691 1549.48,656.191 1533.5,659C 1518.84,659.5 1504.17,659.667 1489.5,659.5C 1489.5,625.833 1489.5,592.167 1489.5,558.5 Z M 1503.5,570.5 C 1513.25,570.08 1522.91,570.58 1532.5,572C 1538.46,574.242 1541.46,578.576 1541.5,585C 1541.23,592.565 1537.56,597.565 1530.5,600C 1521.56,601.346 1512.56,601.846 1503.5,601.5C 1503.5,591.167 1503.5,580.833 1503.5,570.5 Z M 1503.5,613.5 C 1514.24,613.071 1524.91,613.571 1535.5,615C 1541.06,618.444 1544.06,623.444 1544.5,630C 1543.96,637.079 1540.63,642.413 1534.5,646C 1524.25,647.426 1513.91,647.926 1503.5,647.5C 1503.5,636.167 1503.5,624.833 1503.5,613.5 Z"/></g>
<g><path style="opacity:0.947" fill="#017d85" d="M 2222.5,558.5 C 2226.88,558.174 2231.22,558.508 2235.5,559.5C 2248.17,592.5 2260.83,625.5 2273.5,658.5C 2268.5,659.833 2263.5,659.833 2258.5,658.5C 2255.5,650.5 2252.5,642.5 2249.5,634.5C 2235.85,633.334 2222.18,633.167 2208.5,634C 2205,642.33 2202,650.83 2199.5,659.5C 2194.5,659.5 2189.5,659.5 2184.5,659.5C 2196.88,625.734 2209.55,592.067 2222.5,558.5 Z M 2228.5,577.5 C 2234.4,591.874 2239.74,606.541 2244.5,621.5C 2233.83,621.667 2223.16,621.5 2212.5,621C 2218.13,606.608 2223.46,592.108 2228.5,577.5 Z"/></g>
<g><path style="opacity:0.95" fill="#017d85" d="M 969.5,582.5 C 986.794,581.983 997.628,589.983 1002,606.5C 1003.27,613.103 1003.77,619.77 1003.5,626.5C 986.833,626.5 970.167,626.5 953.5,626.5C 954.791,643.293 963.791,650.793 980.5,649C 986.103,647.233 990.77,644.066 994.5,639.5C 997.207,641.843 999.874,644.177 1002.5,646.5C 995.68,656.329 986.18,661.329 974,661.5C 950.505,659.204 939.005,646.204 939.5,622.5C 938.925,600.902 948.925,587.569 969.5,582.5 Z M 967.5,594.5 C 981.469,593.8 988.802,600.467 989.5,614.5C 977.482,614.832 965.482,614.499 953.5,613.5C 955.042,604.706 959.709,598.372 967.5,594.5 Z"/></g>
<g><path style="opacity:0.963" fill="#007e85" d="M 1048.5,582.5 C 1058.93,581.553 1067.27,585.219 1073.5,593.5C 1083.63,583.085 1095.63,580.252 1109.5,585C 1116.97,588.417 1121.13,594.25 1122,602.5C 1122.5,621.497 1122.67,640.497 1122.5,659.5C 1117.83,659.5 1113.17,659.5 1108.5,659.5C 1108.67,641.164 1108.5,622.83 1108,604.5C 1106.04,597.511 1101.38,594.178 1094,594.5C 1086.56,594.627 1081.23,597.96 1078,604.5C 1076.55,622.778 1076.05,641.111 1076.5,659.5C 1071.83,659.5 1067.17,659.5 1062.5,659.5C 1062.67,641.164 1062.5,622.83 1062,604.5C 1059.61,597.869 1054.77,594.535 1047.5,594.5C 1040.19,594.904 1034.69,598.238 1031,604.5C 1030.5,622.83 1030.33,641.164 1030.5,659.5C 1026.17,659.5 1021.83,659.5 1017.5,659.5C 1017.5,634.5 1017.5,609.5 1017.5,584.5C 1021.83,584.5 1026.17,584.5 1030.5,584.5C 1030.34,586.527 1030.5,588.527 1031,590.5C 1036.12,586.022 1041.95,583.355 1048.5,582.5 Z"/></g>
<g><path style="opacity:0.949" fill="#007d85" d="M 1245.5,582.5 C 1257.89,581.341 1267.72,585.674 1275,595.5C 1275.82,597.788 1276.49,600.122 1277,602.5C 1277.33,618.167 1277.67,633.833 1278,649.5C 1278.39,652.627 1279.23,655.627 1280.5,658.5C 1275.5,659.833 1270.5,659.833 1265.5,658.5C 1264.81,656.556 1264.31,654.556 1264,652.5C 1251.47,663.205 1238.3,664.038 1224.5,655C 1214.74,642.731 1215.41,631.065 1226.5,620C 1231.64,616.627 1237.31,614.627 1243.5,614C 1250.16,613.5 1256.83,613.334 1263.5,613.5C 1264.55,598.387 1257.55,592.22 1242.5,595C 1237.08,596.572 1234.08,600.072 1233.5,605.5C 1228.83,605.5 1224.17,605.5 1219.5,605.5C 1220.4,596.415 1225.07,589.915 1233.5,586C 1237.54,584.509 1241.54,583.342 1245.5,582.5 Z M 1247.5,623.5 C 1252.83,623.5 1258.17,623.5 1263.5,623.5C 1266.87,638.772 1260.87,647.438 1245.5,649.5C 1237.16,649.318 1232.49,645.151 1231.5,637C 1231.74,633.513 1233.08,630.513 1235.5,628C 1239.43,625.972 1243.43,624.472 1247.5,623.5 Z"/></g>
<g><path style="opacity:0.944" fill="#017d85" d="M 1320.5,582.5 C 1329.79,581.873 1337.63,584.873 1344,591.5C 1344.5,589.19 1344.66,586.857 1344.5,584.5C 1348.83,584.5 1353.17,584.5 1357.5,584.5C 1357.96,612.542 1357.46,640.542 1356,668.5C 1350.78,682.526 1340.62,689.193 1325.5,688.5C 1314.68,688.841 1305.51,685.174 1298,677.5C 1297.33,676.5 1297.33,675.5 1298,674.5C 1299.71,671.745 1301.88,669.411 1304.5,667.5C 1313.52,677.896 1324.18,680.063 1336.5,674C 1342.47,668.409 1344.64,661.575 1343,653.5C 1328.82,664.604 1315.15,663.938 1302,651.5C 1293.16,636.439 1291.16,620.439 1296,603.5C 1300.12,591.536 1308.28,584.536 1320.5,582.5 Z M 1323.5,594.5 C 1332.02,594.011 1338.52,597.345 1343,604.5C 1343.67,616.167 1343.67,627.833 1343,639.5C 1336.56,648.903 1328.06,651.403 1317.5,647C 1309.91,640.648 1306.58,632.481 1307.5,622.5C 1306.63,612.281 1309.96,603.781 1317.5,597C 1319.61,596.155 1321.61,595.322 1323.5,594.5 Z"/></g>
<g><path style="opacity:0.945" fill="#007d85" d="M 1401.5,582.5 C 1409.68,582.262 1417.35,584.096 1424.5,588C 1429.29,592.069 1432.12,597.236 1433,603.5C 1433.33,619.5 1433.67,635.5 1434,651.5C 1434.82,654.117 1435.32,656.784 1435.5,659.5C 1430.82,659.666 1426.15,659.499 1421.5,659C 1420.9,657.175 1420.23,655.341 1419.5,653.5C 1407.4,662.818 1394.74,663.651 1381.5,656C 1371.68,645.261 1371.01,633.928 1379.5,622C 1383.61,618.612 1388.28,616.279 1393.5,615C 1402.11,613.703 1410.78,613.203 1419.5,613.5C 1419.72,596.757 1411.72,590.923 1395.5,596C 1391.91,597.764 1389.57,600.598 1388.5,604.5C 1383.87,605.662 1379.2,605.828 1374.5,605C 1376.18,594.995 1381.84,588.328 1391.5,585C 1394.99,584.262 1398.32,583.429 1401.5,582.5 Z M 1403.5,623.5 C 1408.83,623.5 1414.17,623.5 1419.5,623.5C 1422.51,638.658 1416.35,647.325 1401,649.5C 1390.57,648.411 1386.24,642.744 1388,632.5C 1388.78,630.714 1389.95,629.214 1391.5,628C 1395.3,625.584 1399.3,624.084 1403.5,623.5 Z"/></g>
<g><path style="opacity:0.942" fill="#007d85" d="M 1640.5,582.5 C 1650.93,581.553 1659.27,585.219 1665.5,593.5C 1675.58,583.09 1687.58,580.257 1701.5,585C 1709.28,589.123 1713.44,595.623 1714,604.5C 1714.5,622.83 1714.67,641.164 1714.5,659.5C 1709.83,659.5 1705.17,659.5 1700.5,659.5C 1700.67,641.164 1700.5,622.83 1700,604.5C 1698.02,597.591 1693.35,594.258 1686,594.5C 1677.31,595 1671.64,599.333 1669,607.5C 1668.5,624.83 1668.33,642.163 1668.5,659.5C 1663.83,659.5 1659.17,659.5 1654.5,659.5C 1654.67,641.164 1654.5,622.83 1654,604.5C 1651.4,597.692 1646.4,594.359 1639,594.5C 1631.61,594.555 1626.28,597.888 1623,604.5C 1622.5,622.83 1622.33,641.164 1622.5,659.5C 1617.83,659.5 1613.17,659.5 1608.5,659.5C 1608.5,634.5 1608.5,609.5 1608.5,584.5C 1613.17,584.5 1617.83,584.5 1622.5,584.5C 1622.34,586.527 1622.5,588.527 1623,590.5C 1628.12,586.022 1633.95,583.355 1640.5,582.5 Z"/></g>
<g><path style="opacity:0.945" fill="#007e85" d="M 1877.5,582.5 C 1893.12,581.211 1902.28,588.211 1905,603.5C 1905.5,622.164 1905.67,640.83 1905.5,659.5C 1900.83,659.5 1896.17,659.5 1891.5,659.5C 1891.67,641.164 1891.5,622.83 1891,604.5C 1889.18,597.663 1884.68,594.33 1877.5,594.5C 1869.65,595.005 1863.82,598.672 1860,605.5C 1859.5,623.497 1859.33,641.497 1859.5,659.5C 1854.83,659.5 1850.17,659.5 1845.5,659.5C 1845.5,634.5 1845.5,609.5 1845.5,584.5C 1849.88,584.174 1854.22,584.508 1858.5,585.5C 1859.19,587.444 1859.69,589.444 1860,591.5C 1865.03,586.737 1870.86,583.737 1877.5,582.5 Z"/></g>
<g><path style="opacity:0.946" fill="#007d85" d="M 1947.5,582.5 C 1956.79,581.872 1964.62,584.872 1971,591.5C 1971.5,589.19 1971.66,586.857 1971.5,584.5C 1975.83,584.5 1980.17,584.5 1984.5,584.5C 1984.67,611.169 1984.5,637.835 1984,664.5C 1981.69,676.81 1974.52,684.644 1962.5,688C 1948.63,690.991 1936.46,687.824 1926,678.5C 1925.5,677.5 1925,676.5 1924.5,675.5C 1926.84,672.793 1929.18,670.126 1931.5,667.5C 1939.33,676.498 1949,679.332 1960.5,676C 1969.1,670.875 1972.27,663.375 1970,653.5C 1956.46,664.361 1943.12,664.028 1930,652.5C 1923.28,643.319 1920.12,632.985 1920.5,621.5C 1920.03,608.398 1924.36,597.231 1933.5,588C 1937.93,585.274 1942.6,583.44 1947.5,582.5 Z M 1950.5,594.5 C 1959.02,594.011 1965.52,597.345 1970,604.5C 1970.67,616.167 1970.67,627.833 1970,639.5C 1963.56,648.903 1955.06,651.403 1944.5,647C 1937.17,640.524 1933.84,632.358 1934.5,622.5C 1933.63,612.273 1936.96,603.773 1944.5,597C 1946.61,596.155 1948.61,595.322 1950.5,594.5 Z"/></g>
<g><path style="opacity:0.944" fill="#017d85" d="M 2028.5,582.5 C 2039.28,581.592 2048.45,584.926 2056,592.5C 2057,594.5 2058,596.5 2059,598.5C 2060.28,615.781 2060.94,633.114 2061,650.5C 2061.53,653.264 2062.37,655.93 2063.5,658.5C 2058.5,659.833 2053.5,659.833 2048.5,658.5C 2047.81,656.556 2047.31,654.556 2047,652.5C 2033,664.5 2019,664.5 2005,652.5C 1995.81,630.723 2002.98,617.89 2026.5,614C 2033.16,613.5 2039.83,613.334 2046.5,613.5C 2047.52,598.354 2040.52,592.187 2025.5,595C 2020.14,596.36 2016.81,599.693 2015.5,605C 2011.18,605.499 2006.85,605.666 2002.5,605.5C 2003.11,596.134 2007.77,589.634 2016.5,586C 2020.54,584.509 2024.54,583.342 2028.5,582.5 Z M 2030.5,623.5 C 2035.83,623.5 2041.17,623.5 2046.5,623.5C 2049.9,639.048 2043.73,647.715 2028,649.5C 2014.26,646.856 2011.09,639.69 2018.5,628C 2022.43,625.972 2026.43,624.472 2030.5,623.5 Z"/></g>
<g><path style="opacity:0.962" fill="#007e85" d="M 2111.5,582.5 C 2118.22,582.41 2124.55,583.91 2130.5,587C 2133.53,589.559 2135.7,592.726 2137,596.5C 2138.45,617.446 2138.95,638.446 2138.5,659.5C 2134.17,659.5 2129.83,659.5 2125.5,659.5C 2125.67,641.83 2125.5,624.164 2125,606.5C 2123.43,598.936 2118.77,594.936 2111,594.5C 2103.58,594.939 2097.91,598.272 2094,604.5C 2093.5,622.83 2093.33,641.164 2093.5,659.5C 2088.83,659.5 2084.17,659.5 2079.5,659.5C 2079.5,634.5 2079.5,609.5 2079.5,584.5C 2083.83,584.5 2088.17,584.5 2092.5,584.5C 2092.34,587.187 2092.5,589.854 2093,592.5C 2097.92,586.628 2104.08,583.295 2111.5,582.5 Z"/></g>
<g><path style="opacity:0.92" fill="#007e85" d="M 2559.5,582.5 C 2562.54,582.508 2565.54,582.841 2568.5,583.5C 2568.5,587.833 2568.5,592.167 2568.5,596.5C 2558.73,594.146 2551.23,597.146 2546,605.5C 2545.5,623.497 2545.33,641.497 2545.5,659.5C 2540.83,659.5 2536.17,659.5 2531.5,659.5C 2531.5,634.5 2531.5,609.5 2531.5,584.5C 2536.17,584.5 2540.83,584.5 2545.5,584.5C 2545.34,586.527 2545.5,588.527 2546,590.5C 2549.62,586.116 2554.12,583.45 2559.5,582.5 Z"/></g>
<g><path style="opacity:0.955" fill="#007e85" d="M 2631.5,582.5 C 2644.77,581.049 2654.6,586.049 2661,597.5C 2662.29,613.767 2662.96,630.1 2663,646.5C 2663.42,650.934 2664.25,655.267 2665.5,659.5C 2660.5,659.5 2655.5,659.5 2650.5,659.5C 2650.63,657.345 2650.13,655.345 2649,653.5C 2637.05,662.892 2624.55,663.725 2611.5,656C 2603.45,648.375 2601.28,639.208 2605,628.5C 2608.88,620.968 2615.04,616.468 2623.5,615C 2632.11,613.703 2640.78,613.203 2649.5,613.5C 2649.96,598.215 2642.63,592.049 2627.5,595C 2622.47,596.853 2619.47,600.353 2618.5,605.5C 2613.83,605.5 2609.17,605.5 2604.5,605.5C 2605.91,595.245 2611.58,588.411 2621.5,585C 2624.95,584.115 2628.29,583.282 2631.5,582.5 Z M 2632.5,623.5 C 2638.17,623.5 2643.83,623.5 2649.5,623.5C 2652.42,638.913 2646.09,647.58 2630.5,649.5C 2622.24,649.224 2617.58,645.057 2616.5,637C 2616.78,633.641 2618.12,630.807 2620.5,628.5C 2624.27,626.028 2628.27,624.362 2632.5,623.5 Z"/></g>
<g><path style="opacity:0.92" fill="#007e85" d="M 2713.5,582.5 C 2729.12,581.211 2738.28,588.211 2741,603.5C 2741.5,622.164 2741.67,640.83 2741.5,659.5C 2736.83,659.5 2732.17,659.5 2727.5,659.5C 2727.67,641.164 2727.5,622.83 2727,604.5C 2725.18,597.663 2720.68,594.33 2713.5,594.5C 2705.65,595.005 2699.82,598.672 2696,605.5C 2695.5,623.497 2695.33,641.497 2695.5,659.5C 2690.83,659.5 2686.17,659.5 2681.5,659.5C 2681.5,634.5 2681.5,609.5 2681.5,584.5C 2685.83,584.5 2690.17,584.5 2694.5,584.5C 2694.84,586.854 2695.34,589.187 2696,591.5C 2701.03,586.737 2706.86,583.737 2713.5,582.5 Z"/></g>
<g><path style="opacity:0.97" fill="#017c85" d="M 1575.5,584.5 C 1580.17,584.5 1584.83,584.5 1589.5,584.5C 1589.5,609.5 1589.5,634.5 1589.5,659.5C 1584.83,659.5 1580.17,659.5 1575.5,659.5C 1575.5,634.5 1575.5,609.5 1575.5,584.5 Z"/></g>
<g><path style="opacity:0.955" fill="#007e85" d="M 1812.5,584.5 C 1817.17,584.5 1821.83,584.5 1826.5,584.5C 1826.5,609.5 1826.5,634.5 1826.5,659.5C 1821.83,659.5 1817.17,659.5 1812.5,659.5C 1812.5,634.5 1812.5,609.5 1812.5,584.5 Z"/></g>
<g><path style="opacity:0.922" fill="#007e85" d="M 2453.5,584.5 C 2458.17,584.5 2462.83,584.5 2467.5,584.5C 2467.33,602.503 2467.5,620.503 2468,638.5C 2469.28,645.779 2473.61,649.445 2481,649.5C 2488.95,649.527 2494.95,646.194 2499,639.5C 2499.5,621.17 2499.67,602.836 2499.5,584.5C 2504.17,584.5 2508.83,584.5 2513.5,584.5C 2513.5,609.5 2513.5,634.5 2513.5,659.5C 2509.17,659.5 2504.83,659.5 2500.5,659.5C 2500.77,657.571 2500.27,655.905 2499,654.5C 2486.78,662.901 2474.28,663.401 2461.5,656C 2457.25,651.326 2454.75,645.826 2454,639.5C 2453.5,621.17 2453.33,602.836 2453.5,584.5 Z"/></g>
<g><path style="opacity:0.93" fill="#007e85" d="M 2311.5,610.5 C 2322.83,610.5 2334.17,610.5 2345.5,610.5C 2345.5,614.5 2345.5,618.5 2345.5,622.5C 2334.17,622.5 2322.83,622.5 2311.5,622.5C 2311.5,618.5 2311.5,614.5 2311.5,610.5 Z"/></g>
</svg>
